<?xml version="1.0" encoding="UTF-8"?>
<svg version="1.1" xmlns="http://www.w3.org/2000/svg" width="1510" height="784">
<path d="M0 0 C498.3 0 996.6 0 1510 0 C1510 258.72 1510 517.44 1510 784 C1011.7 784 513.4 784 0 784 C0 525.28 0 266.56 0 0 Z " fill="#F1E9D9" transform="translate(0,0)"/>
<path d="M0 0 C19.8 0 39.6 0 60 0 C60.495 1.485 60.495 1.485 61 3 C61.66 3 62.32 3 63 3 C64.47265625 4.86328125 64.47265625 4.86328125 66.0625 7.3125 C66.58972656 8.11300781 67.11695313 8.91351563 67.66015625 9.73828125 C69 12 69 12 70 15 C70.66 15 71.32 15 72 15 C73.91015625 17.046875 73.91015625 17.046875 76.0625 19.75 C76.77535156 20.63171875 77.48820313 21.5134375 78.22265625 22.421875 C80 25 80 25 80.55859375 27.265625 C80.77708984 28.12414062 80.77708984 28.12414062 81 29 C82.485 29.495 82.485 29.495 84 30 C84 30.99 84 31.98 84 33 C84.86238281 33.32871094 84.86238281 33.32871094 85.7421875 33.6640625 C88.72178048 35.42707427 90.12057391 37.55696923 92.125 40.375 C95.33148449 44.80489616 98.65367377 49.07633705 102.1875 53.25 C113 66.10354914 113 66.10354914 113 69 C113.607229 69.26538574 114.21445801 69.53077148 114.84008789 69.80419922 C117.10602614 71.05869968 118.06897498 72.04981238 119.55859375 74.1328125 C120.02056152 74.76638672 120.4825293 75.39996094 120.95849609 76.05273438 C121.44656738 76.73658203 121.93463867 77.42042969 122.4375 78.125 C127.25620022 84.72233434 132.25792201 91.11846788 137.45874023 97.41845703 C140.60911213 101.24544916 143.62821247 105.1427124 146.58496094 109.12109375 C148.54628181 111.72535969 150.60844936 114.23917445 152.6875 116.75 C160 125.59067358 160 125.59067358 160 128 C160.66 128 161.32 128 162 128 C162.495 64.64 162.495 64.64 163 0 C185.11 0 207.22 0 230 0 C230 80.52 230 161.04 230 244 C210.2 244 190.4 244 170 244 C166.15174244 239.51036618 163.81207328 236.6867888 161 232 C159.60030221 230.28925825 158.14691699 228.63219084 156.69140625 226.96875 C154.80195717 224.76948363 152.98567598 222.52448953 151.1875 220.25 C150.60355469 219.51265625 150.01960937 218.7753125 149.41796875 218.015625 C148 216 148 216 147 213 C146.34 213 145.68 213 145 213 C145 212.34 145 211.68 145 211 C144.34 211 143.68 211 143 211 C141.96156009 209.35700872 140.96814206 207.68537199 140 206 C138.84014283 204.47852454 137.65077331 202.97923092 136.4375 201.5 C132.81123661 197.03026509 129.29263599 192.48674421 125.80273438 187.91064453 C122.22952632 183.24807746 118.50455324 178.73122827 114.71484375 174.2421875 C113 172 113 172 112 169 C111.37609375 168.690625 110.7521875 168.38125 110.109375 168.0625 C107.52769297 166.7620972 106.71664884 165.46252151 105.25 163 C104.82203125 162.29875 104.3940625 161.5975 103.953125 160.875 C103 159 103 159 103 157 C102.34 157 101.68 157 101 157 C101 156.34 101 155.68 101 155 C100.34 155 99.68 155 99 155 C97.80175781 153.61743164 97.80175781 153.61743164 96.453125 151.66015625 C95.94458984 150.93465576 95.43605469 150.20915527 94.91210938 149.46166992 C94.36361328 148.66994385 93.81511719 147.87821777 93.25 147.0625 C88.5504778 140.41304865 83.68781537 133.96431296 78.5 127.6875 C77.92540039 126.98955322 77.35080078 126.29160645 76.75878906 125.57250977 C73.63844729 121.82764212 70.47351482 118.47351482 67 115 C67 157.57 67 200.14 67 244 C44.89 244 22.78 244 0 244 C0 163.48 0 82.96 0 0 Z " fill="#4B2F1A" transform="translate(568,267)"/>
<path d="M0 0 C7.53623689 -0.25596917 15.07201862 -0.45086088 22.61162472 -0.56993389 C26.11383025 -0.62711907 29.61304292 -0.70451618 33.11352539 -0.82983398 C37.14757226 -0.97333322 41.17852755 -1.02577537 45.21484375 -1.07421875 C46.45894516 -1.13099289 47.70304657 -1.18776703 48.98484802 -1.2462616 C54.37984467 -1.25005848 57.66414469 -1.14687669 61.85574341 2.45175171 C68 9.78413786 68 9.78413786 68 13 C68.61875 13.20625 69.2375 13.4125 69.875 13.625 C72.82863641 15.5361765 72.91109857 17.7332957 74 21 C75.33220721 21.66891417 76.66569768 22.33527484 78 23 C79.7109375 24.8828125 79.7109375 24.8828125 81.375 27.125 C81.91898438 27.84945313 82.46296875 28.57390625 83.0234375 29.3203125 C84.00183594 30.64675781 84.00183594 30.64675781 85 32 C88.13384527 36.2289371 91.31080281 40.41600979 94.578125 44.54296875 C95.18140625 45.30673828 95.7846875 46.07050781 96.40625 46.85742188 C97.64713921 48.4256219 98.89201145 49.99067754 100.140625 51.55273438 C100.73875 52.31263672 101.336875 53.07253906 101.953125 53.85546875 C102.49098633 54.53246826 103.02884766 55.20946777 103.58300781 55.90698242 C105 58 105 58 106.06762695 60.68969727 C107.23137889 63.57332768 108.23231451 63.78880558 111 65 C112.31640625 66.453125 112.31640625 66.453125 113.5625 68.25 C116.40415966 72.20674129 119.35851427 76.05116981 122.375 79.875 C122.85018066 80.47924805 123.32536133 81.08349609 123.81494141 81.70605469 C126.66433769 85.32442827 129.54257958 88.91787418 132.4375 92.5 C135.16754439 95.89862669 137.64402205 99.33514541 140 103 C140.5775 103.7425 141.155 104.485 141.75 105.25 C143 107 143 107 143 109 C143.66 109 144.32 109 145 109 C148 112.46153846 148 112.46153846 148 115 C148.66 115 149.32 115 150 115 C151.38442 116.96498322 152.71203834 118.97048465 154 121 C154.5775 121.7425 155.155 122.485 155.75 123.25 C157 125 157 125 157 127 C158.65 127.66 160.3 128.32 162 129 C162 86.43 162 43.86 162 0 C184.11 0 206.22 0 229 0 C229 80.52 229 161.04 229 244 C209.2 244 189.4 244 169 244 C165.7 239.38 162.4 234.76 159 230 C156.94389775 227.48435416 154.9109558 225.03784865 152.75 222.625 C151.73656202 221.46634526 150.72482636 220.30619922 149.71484375 219.14453125 C149.24675293 218.60650879 148.77866211 218.06848633 148.29638672 217.51416016 C141.54152961 209.62458882 141.54152961 209.62458882 140 205 C139.01 204.67 138.02 204.34 137 204 C135.96986723 202.35178756 134.97934924 200.67888441 134 199 C130.04161659 193.55034564 130.04161659 193.55034564 125.53515625 188.56640625 C123.41698667 186.40511871 121.7240777 184.00404811 119.9375 181.5625 C116.70344129 177.17807592 113.33820858 172.96665815 109.8125 168.8125 C107.01072463 165.49506045 104.38993534 162.22754186 102.0625 158.5625 C99.11040594 153.93671159 95.60009755 149.88161819 92.03198242 145.72900391 C87.69595528 140.67733617 83.74726626 135.42075798 79.8515625 130.0234375 C79.07554688 128.96382812 78.29953125 127.90421875 77.5 126.8125 C76.43265625 125.33716797 76.43265625 125.33716797 75.34375 123.83203125 C72.64074666 120.38939952 72.64074666 120.38939952 67 116 C67 158.24 67 200.48 67 244 C56.130625 244.020625 45.26125 244.04125 34.0625 244.0625 C30.62593994 244.071604 27.18937988 244.08070801 23.64868164 244.09008789 C20.94417358 244.09300674 18.23966507 244.09555537 15.53515625 244.09765625 C14.82789902 244.10026962 14.12064178 244.102883 13.39195251 244.10557556 C11.31865067 244.11285596 9.24543178 244.11390732 7.17211914 244.11352539 C6.00185684 244.115746 4.83159454 244.11796661 3.62586975 244.12025452 C1 244 1 244 0 243 C-0.09805942 239.87760807 -0.12990476 236.77731859 -0.12025452 233.65452576 C-0.12153615 232.16478928 -0.12153615 232.16478928 -0.12284368 230.64495713 C-0.12450149 227.28989819 -0.11897221 223.93488837 -0.11352539 220.57983398 C-0.11324356 218.18562827 -0.11340118 215.79142246 -0.1139679 213.3972168 C-0.11419621 208.22869319 -0.11134489 203.06018086 -0.10573006 197.89166069 C-0.09761712 190.41876712 -0.09500005 182.94587967 -0.09374207 175.47298218 C-0.09155122 163.34990459 -0.08489025 151.22683371 -0.07543945 139.10375977 C-0.06626618 127.32446323 -0.05918493 115.54516852 -0.05493164 103.76586914 C-0.05466892 103.04029194 -0.05440619 102.31471474 -0.05413551 101.56715035 C-0.05283051 97.92729168 -0.05156679 94.287433 -0.05032361 90.64757431 C-0.03994998 60.4317114 -0.02225666 30.21585663 0 0 Z " fill="#4B2F1B" transform="translate(1175,267)"/>
<path d="M0 0 C2.45885954 0.0031784 4.91652988 -0.02051307 7.37524414 -0.0456543 C33.37974535 -0.14879159 63.46274811 5.80224644 85.89282227 19.31567383 C85.35566916 24.28434001 83.75562228 28.58801488 82.00610352 33.22583008 C80.42373942 37.61758448 79.1259494 42.08442683 77.82250977 46.56567383 C76.89282227 49.31567383 76.89282227 49.31567383 74.89282227 52.31567383 C74.42425806 53.69798092 74.01035747 55.09947772 73.63891602 56.51098633 C73.42428711 57.30891602 73.2096582 58.1068457 72.98852539 58.92895508 C72.77131836 59.75782227 72.55411133 60.58668945 72.33032227 61.44067383 C71.89450875 63.08990396 71.45585701 64.73838758 71.01391602 66.38598633 C70.82240967 67.11575684 70.63090332 67.84552734 70.43359375 68.59741211 C69.89282227 70.31567383 69.89282227 70.31567383 68.89282227 71.31567383 C66.55337491 71.02837328 64.21890796 70.69630603 61.89282227 70.31567383 C61.89282227 69.65567383 61.89282227 68.99567383 61.89282227 68.31567383 C61.06782227 68.23317383 60.24282227 68.15067383 59.39282227 68.06567383 C56.48493321 67.44255475 54.7097326 66.83358467 52.14282227 65.50317383 C41.12396578 59.80872747 30.04344228 57.43895463 17.89282227 55.31567383 C16.80227539 55.12102539 15.71172852 54.92637695 14.58813477 54.72583008 C-1.45532476 52.94510783 -20.9744334 51.64437101 -34.89624023 61.23754883 C-37.95838528 64.11574877 -38.94408015 65.95399867 -39.44311523 70.12036133 C-39.52439593 76.50902419 -39.51961778 80.52502463 -35.10717773 85.31567383 C-33.62217773 86.30567383 -33.62217773 86.30567383 -32.10717773 87.31567383 C-32.10717773 87.97567383 -32.10717773 88.63567383 -32.10717773 89.31567383 C-31.42655273 89.41879883 -30.74592773 89.52192383 -30.04467773 89.62817383 C-27.18604709 90.29721504 -24.72268562 91.35119436 -22.04101562 92.52001953 C-18.88232034 93.81962665 -15.63221697 94.79822947 -12.35717773 95.75317383 C-11.62764893 95.96780273 -10.89812012 96.18243164 -10.14648438 96.40356445 C-3.8713129 98.19856311 2.46102156 99.52127659 8.85888672 100.79370117 C14.8166366 102.00951872 20.54377147 103.63537028 26.31787109 105.53051758 C30.23205894 106.81363063 34.12888883 107.89418717 38.14282227 108.81567383 C56.76274217 113.3387313 77.29471033 123.91990766 87.89282227 140.31567383 C97.22293259 156.83557963 98.7639121 177.36347964 93.79956055 195.64526367 C88.51705959 213.06024795 78.4659694 224.96248095 63.89282227 235.31567383 C62.61084961 236.23413086 62.61084961 236.23413086 61.30297852 237.17114258 C41.05463715 251.18922506 14.95244863 252.84939034 -8.87255859 252.65185547 C-11.93475398 252.62805666 -14.9960836 252.63135289 -18.05834961 252.63793945 C-32.95065616 252.61789051 -47.00818717 251.28796791 -61.54467773 247.87817383 C-62.9165625 247.57169922 -62.9165625 247.57169922 -64.31616211 247.2590332 C-69.77930821 246.00192217 -74.908134 244.39672698 -80.10717773 242.31567383 C-81.53304889 241.77729616 -82.96016166 241.2421967 -84.38842773 240.71020508 C-88.29467773 239.24536133 -92.20092773 237.78051758 -96.10717773 236.31567383 C-96.10717773 235.65567383 -96.10717773 234.99567383 -96.10717773 234.31567383 C-97.90155273 233.97536133 -97.90155273 233.97536133 -99.73217773 233.62817383 C-104.3941428 232.42320959 -106.96390536 231.02312329 -110.10717773 227.31567383 C-110.3296763 220.75196612 -107.64240989 215.26877451 -105.10717773 209.31567383 C-104.08341012 206.65731927 -103.09658856 203.98708306 -102.10717773 201.31567383 C-101.44717773 201.31567383 -100.78717773 201.31567383 -100.10717773 201.31567383 C-100.0053418 200.5293457 -99.90350586 199.74301758 -99.79858398 198.93286133 C-98.91330083 194.30137999 -97.49867317 189.920734 -96.04467773 185.44067383 C-95.76301758 184.5615332 -95.48135742 183.68239258 -95.19116211 182.77661133 C-94.50019963 180.6217453 -93.80545135 178.46817953 -93.10717773 176.31567383 C-91.45717773 176.31567383 -89.80717773 176.31567383 -88.10717773 176.31567383 C-88.10717773 176.97567383 -88.10717773 177.63567383 -88.10717773 178.31567383 C-87.11717773 178.68692383 -87.11717773 178.68692383 -86.10717773 179.06567383 C-83.79751368 180.02803385 -81.63769843 181.04792077 -79.41967773 182.19067383 C-73.84200979 185.02192353 -68.03929317 187.33830202 -62.10717773 189.31567383 C-62.10717773 189.97567383 -62.10717773 190.63567383 -62.10717773 191.31567383 C-61.5619043 191.4368457 -61.01663086 191.55801758 -60.45483398 191.68286133 C-58.86728743 192.03564945 -57.28007062 192.38992337 -55.69311523 192.74536133 C-54.01323577 193.11584834 -52.33099444 193.47583864 -50.64624023 193.82348633 C-49.4822168 194.06711914 -49.4822168 194.06711914 -48.29467773 194.31567383 C-47.58698242 194.46004883 -46.87928711 194.60442383 -46.15014648 194.75317383 C-44.10717773 195.31567383 -44.10717773 195.31567383 -42.38842773 196.27661133 C-25.81601115 203.82500655 0.14707582 202.55216565 17.19750977 197.48364258 C19.79109275 196.35975662 21.02667887 195.36373687 22.89282227 193.31567383 C23.55282227 193.31567383 24.21282227 193.31567383 24.89282227 193.31567383 C25.20219727 192.51129883 25.51157227 191.70692383 25.83032227 190.87817383 C26.89282227 188.31567383 26.89282227 188.31567383 27.89282227 187.31567383 C28.46608201 180.23658256 28.30470443 174.18385802 23.58032227 168.56567383 C20.92058652 166.33891832 19.15340929 165.3772603 15.89282227 164.31567383 C14.67594727 163.86192383 13.45907227 163.40817383 12.20532227 162.94067383 C11.51567383 162.68672852 10.82602539 162.4327832 10.11547852 162.17114258 C8.58863134 161.58348084 7.07568684 160.95877994 5.57641602 160.30395508 C0.17504791 157.97174317 -4.84404119 156.72305935 -10.65405273 155.86645508 C-22.10179953 154.04051356 -33.23497596 151.13409665 -44.24780273 147.55395508 C-50.15032122 145.63608783 -56.1310994 143.98710824 -62.10717773 142.31567383 C-62.10717773 141.65567383 -62.10717773 140.99567383 -62.10717773 140.31567383 C-63.17967773 140.21254883 -64.25217773 140.10942383 -65.35717773 140.00317383 C-69.11207185 139.31477657 -70.28563819 138.66695678 -73.10717773 136.31567383 C-73.8715918 136.02692383 -74.63600586 135.73817383 -75.42358398 135.44067383 C-83.57710639 132.0226033 -90.99633098 124.41481344 -96.10717773 117.31567383 C-96.28120117 116.58864258 -96.45522461 115.86161133 -96.63452148 115.11254883 C-96.86848633 114.2230957 -96.86848633 114.2230957 -97.10717773 113.31567383 C-98.09717773 112.98567383 -99.08717773 112.65567383 -100.10717773 112.31567383 C-109.49776428 98.40241508 -108.76442723 76.98885926 -105.85717773 61.19067383 C-102.51049629 46.80772661 -95.81006033 35.56903536 -85.10717773 25.31567383 C-84.44717773 25.31567383 -83.78717773 25.31567383 -83.10717773 25.31567383 C-82.77717773 24.32567383 -82.44717773 23.33567383 -82.10717773 22.31567383 C-79.89233398 20.71020508 -79.89233398 20.71020508 -77.16967773 19.12817383 C-76.2737793 18.59836914 -75.37788086 18.06856445 -74.45483398 17.52270508 C-72.10717773 16.31567383 -72.10717773 16.31567383 -70.10717773 16.31567383 C-70.10717773 15.65567383 -70.10717773 14.99567383 -70.10717773 14.31567383 C-67.01908078 12.551047 -65.87405638 12.31567383 -62.10717773 12.31567383 C-62.10717773 11.65567383 -62.10717773 10.99567383 -62.10717773 10.31567383 C-61.43170898 10.12231445 -60.75624023 9.92895508 -60.06030273 9.72973633 C-59.16827148 9.4693457 -58.27624023 9.20895508 -57.35717773 8.94067383 C-56.47545898 8.68543945 -55.59374023 8.43020508 -54.68530273 8.16723633 C-52.15568138 7.4007451 -52.15568138 7.4007451 -50.09545898 6.30786133 C-35.68294463 -0.88423817 -15.7350788 -0.04228597 0 0 Z " fill="#4C2F1B" transform="translate(192.107177734375,262.684326171875)"/>
<path d="M0 0 C-1.00691418 3.17565242 -2.07969513 6.16935216 -3.5 9.1875 C-7.16463166 17.65533442 -7.31972357 26.98100478 -7.25 36.0625 C-7.25773438 37.07376953 -7.26546875 38.08503906 -7.2734375 39.12695312 C-7.21710944 60.99632048 1.75499499 77.76549126 16.7890625 93.15234375 C19.10851965 95.09068868 21.1492758 96.04475733 24 97 C24 97.66 24 98.32 24 99 C24.825 99.268125 25.65 99.53625 26.5 99.8125 C29.60144815 100.86477705 32.63839353 102.00749872 35.6796875 103.21875 C53.36030548 109.17182003 72.3790067 107.2997094 89.125 99.5546875 C90.82665873 98.70869239 92.51516198 97.8348684 94.1796875 96.91796875 C96 96 96 96 98 96 C98 95.34 98 94.68 98 94 C99.4609375 92.4921875 99.4609375 92.4921875 101.375 90.875 C102.00148438 90.33617187 102.62796875 89.79734375 103.2734375 89.2421875 C105 88 105 88 107 88 C107.2475 87.443125 107.495 86.88625 107.75 86.3125 C109.21606015 83.60028873 111.02989471 81.36412635 113 79 C119.69510665 80.61606023 119.69510665 80.61606023 121.6875 83.125 C124.10521775 86.13081126 126.67785929 88.42358256 129.6015625 90.91796875 C131.89073531 92.90514971 134.11977835 94.94768682 136.34008789 97.01123047 C141.3746353 101.68942769 146.5041968 106.12968947 151.94140625 110.34375 C152.62074219 110.8903125 153.30007813 111.436875 154 112 C154.60714844 112.4846875 155.21429687 112.969375 155.83984375 113.46875 C157 115 157 115 156.94140625 116.85546875 C151.73327583 128.71963307 138.54917936 138.16256894 128 145 C127.34 145 126.68 145 126 145 C126 145.66 126 146.32 126 147 C123.36 147.66 120.72 148.32 118 149 C118 149.66 118 150.32 118 151 C113.35827037 152.76715595 108.70928176 154.51240108 104.05078125 156.23486328 C102.35095342 156.86906095 100.6587691 157.52370227 98.96875 158.18359375 C74.28527922 167.29803627 43.13826795 166.84233349 18 160 C16.70077666 159.67216158 15.40130695 159.34529755 14.1015625 159.01953125 C6.44747762 156.98563668 -0.77421568 154.22910508 -8 151 C-8 150.34 -8 149.68 -8 149 C-8.928125 148.835 -9.85625 148.67 -10.8125 148.5 C-16.68986114 146.83435109 -21.2370015 142.66648086 -26 139 C-27.4578468 137.93683253 -28.91612309 136.87425352 -30.375 135.8125 C-37.57967337 130.55975355 -43.05023542 123.37324552 -48.70019531 116.56005859 C-49.79600299 115.24484239 -50.90793221 113.94308277 -52.0234375 112.64453125 C-56.53059739 107.20942668 -64 97.3651905 -64 90 C-64.66 90 -65.32 90 -66 90 C-66.15855469 89.46375 -66.31710937 88.9275 -66.48046875 88.375 C-66.71378906 87.59125 -66.94710937 86.8075 -67.1875 86 C-67.45820312 85.08476562 -67.72890625 84.16953125 -68.0078125 83.2265625 C-68.71752292 80.91860658 -69.46692819 78.62270867 -70.2421875 76.3359375 C-74.95158321 62.37756873 -76.15676863 48.99393432 -76.25 34.3125 C-76.25942627 33.19641357 -76.26885254 32.08032715 -76.27856445 30.93041992 C-76.27429443 29.83576416 -76.27002441 28.7411084 -76.265625 27.61328125 C-76.26336914 26.65204346 -76.26111328 25.69080566 -76.25878906 24.70043945 C-75.86583555 19.08157499 -74.91089027 13.55529449 -74 8 C-65.82907261 6.94954116 -57.6573116 5.90592462 -49.48443031 4.87078857 C-45.68857129 4.38981115 -41.89303014 3.90657182 -38.09814453 3.41796875 C-34.42892048 2.9456328 -30.75895554 2.4794926 -27.08842087 2.01745605 C-25.69528065 1.84102198 -24.30241067 1.66243899 -22.90983963 1.48156738 C-15.23571509 0.48635326 -7.74356848 -0.28682518 0 0 Z " fill="#4B2F1A" transform="translate(898,352)"/>
<path d="M0 0 C-0.37668157 11.94989814 -1.4257124 23.32086363 -4 35 C-4.14179687 35.73992187 -4.28359375 36.47984375 -4.4296875 37.2421875 C-6.1987487 45.65425401 -10.01208002 54.40761389 -14 62 C-14.66 62 -15.32 62 -16 62 C-16.2475 62.721875 -16.495 63.44375 -16.75 64.1875 C-18.11953215 67.26894735 -19.85997022 69.4060245 -22 72 C-22.433125 72.78375 -22.86625 73.5675 -23.3125 74.375 C-25.68213102 78.0610927 -28.63657796 81.1876929 -32 84 C-32.66 84 -33.32 84 -34 84 C-34 84.66 -34 85.32 -34 86 C-54.62021904 105.56117456 -83.94460651 111.23010119 -111.25 111.1875 C-111.9604245 111.18689575 -112.670849 111.1862915 -113.40280151 111.18566895 C-133.62638703 111.13900854 -153.15490428 110.18591909 -171.6328125 101.1484375 C-173.99463083 99.96009488 -173.99463083 99.96009488 -176.51953125 99.0390625 C-179.12943476 97.94578008 -181.24260891 96.61383728 -183.5625 95 C-185.72100135 93.50363858 -187.75241145 92.11787764 -190.125 90.98828125 C-192.60143278 89.68299481 -194.00230624 87.73679944 -195.71875 85.5703125 C-197.12435912 83.79369781 -197.12435912 83.79369781 -199.4375 81.5625 C-204.00119991 76.99880009 -207.67633905 73.0772671 -210 67 C-210.99 66.67 -211.98 66.34 -213 66 C-214.0625 63.890625 -214.0625 63.890625 -215 61.25 C-216.08562119 58.31047185 -217.06081586 55.90443221 -218.75 53.25 C-220.34690613 50.37556897 -220.08857139 48.24171305 -220 45 C-213.01616124 43.1349976 -206.03634004 41.60162151 -198.91894531 40.34106445 C-191.03912231 38.89911918 -183.26285077 36.98987205 -175.48779297 35.0690918 C-160.15788195 31.39671602 -160.15788195 31.39671602 -154 32 C-150.3005822 35.05361056 -148.49990504 38.50028487 -147 43 C-145.515 43.495 -145.515 43.495 -144 44 C-144 44.66 -144 45.32 -144 46 C-143.484375 46.2475 -142.96875 46.495 -142.4375 46.75 C-139.90462234 48.04891162 -137.4930216 49.50069363 -135.07421875 51 C-128.5090193 54.16514324 -122.29736186 54.33682959 -115.125 54.3125 C-114.18269531 54.32861328 -113.24039063 54.34472656 -112.26953125 54.36132812 C-100.7752363 54.36927715 -89.35410893 50.1154201 -81 42 C-79.50093355 39.72181349 -78.26019081 37.42703416 -77 35 C-76.34 35 -75.68 35 -75 35 C-74.8453125 33.7625 -74.8453125 33.7625 -74.6875 32.5 C-74.035105 29.17871637 -73.08130667 26.34186094 -71.81640625 23.22265625 C-70.70448749 20.19547072 -69.86335407 17.10583219 -69 14 C-64.50054476 13.0598766 -60.00046705 12.12276616 -55.5 11.1875 C-54.83384674 11.04894592 -54.16769348 10.91039185 -53.48135376 10.76763916 C-46.06317997 9.22648875 -38.64491056 7.71658441 -31.1875 6.375 C-22.62599023 4.81329138 -14.17650179 2.7302966 -5.796875 0.3828125 C-4 0 -4 0 0 0 Z " fill="#4B2F1B" transform="translate(536,405)"/>
<path d="M0 0 C0 70.62 0 141.24 0 214 C-22.44 214 -44.88 214 -68 214 C-68 155.26 -68 96.52 -68 36 C-62.39 33.36 -56.78 30.72 -51 28 C-49.02 26.68 -47.04 25.36 -45 24 C-43.74549137 23.32300211 -42.47625679 22.67178153 -41.1875 22.0625 C-34.09684574 18.59714265 -27.32466493 14.6229962 -20.5625 10.5625 C-19.91692139 10.17497559 -19.27134277 9.78745117 -18.60620117 9.38818359 C-15.69847943 7.63847573 -12.80091675 5.87636148 -9.91796875 4.0859375 C-9.03753906 3.54195313 -8.15710937 2.99796875 -7.25 2.4375 C-6.49203125 1.96183594 -5.7340625 1.48617188 -4.953125 0.99609375 C-3 0 -3 0 0 0 Z " fill="#4B2F1A" transform="translate(1141,297)"/>
<path d="M0 0 C0.83857544 -0.00570007 1.67715088 -0.01140015 2.5411377 -0.01727295 C4.30931358 -0.02666723 6.07750653 -0.03323458 7.84570312 -0.03710938 C10.49642126 -0.04674835 13.14634034 -0.07779752 15.796875 -0.109375 C29.48581509 -0.19498888 42.18643939 1.35490686 55.28125 5.578125 C55.93109863 5.78727539 56.58094727 5.99642578 57.25048828 6.21191406 C64.00572632 8.43440228 70.66681549 11.02090775 77.03125 14.203125 C77.03125 14.863125 77.03125 15.523125 77.03125 16.203125 C77.85496094 16.40292969 78.67867187 16.60273438 79.52734375 16.80859375 C84.10729738 18.63138466 87.34772153 21.36420422 91.09375 24.515625 C91.78791016 25.08474609 92.48207031 25.65386719 93.19726562 26.24023438 C97.00737313 29.39180478 100.57695281 32.65871571 104.03125 36.203125 C104.70929688 36.82316406 105.38734375 37.44320312 106.0859375 38.08203125 C106.98699219 38.91541016 106.98699219 38.91541016 107.90625 39.765625 C108.52242187 40.32378906 109.13859375 40.88195312 109.7734375 41.45703125 C111.03125 43.203125 111.03125 43.203125 110.7265625 45.41796875 C110.49710938 46.00707031 110.26765625 46.59617187 110.03125 47.203125 C109.37125 47.203125 108.71125 47.203125 108.03125 47.203125 C108.03125 47.863125 108.03125 48.523125 108.03125 49.203125 C106.5703125 50.7109375 106.5703125 50.7109375 104.65625 52.328125 C104.02976562 52.86695313 103.40328125 53.40578125 102.7578125 53.9609375 C101.03125 55.203125 101.03125 55.203125 99.03125 55.203125 C98.37125 56.523125 97.71125 57.843125 97.03125 59.203125 C96.37125 59.203125 95.71125 59.203125 95.03125 59.203125 C94.70125 60.193125 94.37125 61.183125 94.03125 62.203125 C92.32421875 63.95703125 92.32421875 63.95703125 90.21875 65.765625 C89.53167969 66.36503906 88.84460937 66.96445312 88.13671875 67.58203125 C86.16569155 69.09961249 84.29160739 70.18215458 82.03125 71.203125 C82.03125 71.863125 82.03125 72.523125 82.03125 73.203125 C80.421875 74.82421875 80.421875 74.82421875 78.28125 76.640625 C77.58515625 77.23746094 76.8890625 77.83429688 76.171875 78.44921875 C70.36978007 83.203125 70.36978007 83.203125 68.09375 83.203125 C65.12627613 81.76434979 63.30161973 79.58160758 61.03125 77.203125 C59.93703681 76.29516086 58.8328663 75.39905369 57.71875 74.515625 C56.831875 73.7525 55.945 72.989375 55.03125 72.203125 C55.03125 71.543125 55.03125 70.883125 55.03125 70.203125 C54.20625 69.97625 53.38125 69.749375 52.53125 69.515625 C49.68577105 68.4485704 47.76321071 67.46763157 45.28125 65.828125 C35.14597557 59.27114402 24.26869568 56.82042968 12.34375 56.890625 C10.89162109 56.89690918 10.89162109 56.89690918 9.41015625 56.90332031 C-0.62816946 57.06100792 -9.73185494 57.92739543 -17.96875 64.203125 C-19.0825 64.656875 -20.19625 65.110625 -21.34375 65.578125 C-24.46634681 66.97790978 -25.93644083 67.97479235 -28.40625 70.140625 C-34.3228614 74.74623387 -41.77755166 75.76821845 -48.96875 77.203125 C-50.24105469 77.45707031 -51.51335937 77.71101563 -52.82421875 77.97265625 C-56.13989356 78.6046962 -59.45792877 79.21463141 -62.78027344 79.81005859 C-66.78364367 80.52909318 -70.78345111 81.2662506 -74.78125 82.015625 C-76.06841919 82.25684082 -76.06841919 82.25684082 -77.3815918 82.50292969 C-86.3005715 84.20915526 -95.15101857 86.21729084 -103.99536133 88.27270508 C-105.63734497 88.64818481 -105.63734497 88.64818481 -107.3125 89.03125 C-108.28380859 89.2571582 -109.25511719 89.48306641 -110.25585938 89.71582031 C-112.89295141 90.18950963 -115.2964701 90.29430835 -117.96875 90.203125 C-118.73440405 77.79502557 -108.26774892 61.83289668 -100.96875 52.203125 C-99.96875 51.203125 -98.96875 50.203125 -97.96875 49.203125 C-96.39657175 47.11088779 -94.88344943 44.98342572 -93.37109375 42.84765625 C-92.67693359 42.03361328 -92.67693359 42.03361328 -91.96875 41.203125 C-91.30875 41.203125 -90.64875 41.203125 -89.96875 41.203125 C-89.7625 40.64625 -89.55625 40.089375 -89.34375 39.515625 C-87.83310988 36.97500299 -86.03016825 35.43805003 -83.69921875 33.64453125 C-81.80961511 32.12392398 -81.80961511 32.12392398 -79.6953125 29.84375 C-76.70433021 26.94703936 -73.61954197 24.67817 -70.15625 22.390625 C-69.51187988 21.96265625 -68.86750977 21.5346875 -68.20361328 21.09375 C-57.37704215 14.06547266 -45.72795462 8.23074154 -33.15625 5.203125 C-32.48271484 5.038125 -31.80917969 4.873125 -31.11523438 4.703125 C-29.74978897 4.36862354 -28.38373218 4.03660842 -27.01708984 3.70703125 C-25.66010567 3.37320344 -24.30610699 3.02697736 -22.95556641 2.66796875 C-22.2960498 2.49394531 -21.6365332 2.31992187 -20.95703125 2.140625 C-20.09331909 1.90666016 -20.09331909 1.90666016 -19.2121582 1.66796875 C-12.82030299 0.34354908 -6.50345311 0.03527761 0 0 Z " fill="#4A2F1A" transform="translate(944.96875,262.796875)"/>
<path d="M0 0 C22.44 0 44.88 0 68 0 C68.33 50.82 68.66 101.64 69 154 C64.71944441 155.42685186 61.58379071 156.31217536 57.2578125 156.87109375 C51.85231064 157.65591186 46.56326557 158.69643086 41.2421875 159.91015625 C40.48021057 160.08364594 39.71823364 160.25713562 38.9331665 160.43588257 C35.78618414 161.15652632 32.64086438 161.88412325 29.49658203 162.61645508 C20.68066881 164.66271417 12.07888491 166.58981693 3 167 C-0.70253458 157.3734101 -0.14045846 147.17677988 -0.11352539 137.02514648 C-0.11324288 135.52630109 -0.1134025 134.02745555 -0.1139679 132.52861023 C-0.11425338 128.48380535 -0.10839706 124.43903046 -0.10139394 120.39423251 C-0.09511879 116.15817338 -0.09455332 111.92211347 -0.09336853 107.68605042 C-0.09026745 99.67525175 -0.08207061 91.66446682 -0.07201904 83.65367419 C-0.05872346 72.82106257 -0.05334811 61.98844716 -0.04751682 51.15582943 C-0.03812985 34.10387601 -0.01820277 17.05195157 0 0 Z " fill="#4B2F1A" transform="translate(306,268)"/>
<path d="M0 0 C22.44 0 44.88 0 68 0 C68 43.89 68 87.78 68 133 C58.76 133.99 49.52 134.98 40 136 C38.68 136.33 37.36 136.66 36 137 C32.66774724 137.29952834 29.33494402 137.50651888 25.99609375 137.71875 C22.95106732 137.89065623 22.95106732 137.89065623 20 139 C10.1 139.495 10.1 139.495 0 140 C0 93.8 0 47.6 0 0 Z " fill="#4D311C" transform="translate(468,267)"/>
<path d="M0 0 C22.77 0 45.54 0 69 0 C69 8 69 8 67.42578125 9.8046875 C66.72839844 10.15789062 66.03101563 10.51109375 65.3125 10.875 C64.58289062 11.25785156 63.85328125 11.64070313 63.1015625 12.03515625 C62.40804688 12.35355469 61.71453125 12.67195313 61 13 C60.071875 13.433125 59.14375 13.86625 58.1875 14.3125 C56 15 56 15 53 15 C53 15.66 53 16.32 53 17 C52.20078125 17.30292969 51.4015625 17.60585938 50.578125 17.91796875 C41.01873178 21.5644509 31.54652032 25.34808845 22.25 29.625 C17.89023646 31.62898353 13.51083044 33.36676829 9 35 C8.0925 35.391875 7.185 35.78375 6.25 36.1875 C4 37 4 37 0 37 C0 24.79 0 12.58 0 0 Z " fill="#4D321E" transform="translate(1073,267)"/>
<path d="M0 0 C19.47 0 38.94 0 59 0 C59 0.33 59 0.66 59 1 C39.86 1 20.72 1 1 1 C1.10544157 30.99693861 1.21439298 60.99385803 1.33111694 90.99075447 C1.34488683 94.53062002 1.35861388 98.07048574 1.37231445 101.61035156 C1.37504276 102.31508741 1.37777106 103.01982325 1.38058204 103.74591473 C1.42468011 115.16308915 1.46530582 126.58027343 1.50465261 137.9974651 C1.54509074 149.70894805 1.58925036 161.42041267 1.63687855 173.1318686 C1.66347455 179.71152052 1.68832755 186.2911688 1.70907402 192.87084198 C1.7286418 199.05952627 1.75278609 205.24817557 1.78049088 211.43682861 C1.78986054 213.71207291 1.79753613 215.98732489 1.80341911 218.26258087 C1.81168166 221.36159555 1.82595891 224.46052534 1.84178162 227.55950928 C1.84275972 228.46612171 1.84373783 229.37273414 1.84474558 230.30681968 C1.85022002 231.13686523 1.85569446 231.96691078 1.8613348 232.82210922 C1.86399284 233.53750232 1.86665089 234.25289543 1.86938947 234.98996711 C2.00623064 237.09588648 2.42716985 238.97269251 3 241 C3.73027405 240.99555878 4.4605481 240.99111755 5.21295166 240.98654175 C12.09883988 240.94644914 18.98471062 240.91600749 25.87068558 240.89637566 C29.41074864 240.88594339 32.95071516 240.87179446 36.49072266 240.84912109 C40.56153281 240.82321149 44.63224172 240.81352262 48.703125 240.8046875 C49.97303284 240.79436493 51.24294067 240.78404236 52.55133057 240.77340698 C53.73225281 240.77325592 54.91317505 240.77310486 56.12988281 240.77294922 C57.16912903 240.768508 58.20837524 240.76406677 59.27911377 240.75949097 C62 241 62 241 66 243 C66 200.76 66 158.52 66 115 C67.65 115 69.3 115 71 115 C71.33 116.65 71.66 118.3 72 120 C70.35 118.68 68.7 117.36 67 116 C67 158.24 67 200.48 67 244 C56.130625 244.020625 45.26125 244.04125 34.0625 244.0625 C30.62593994 244.071604 27.18937988 244.08070801 23.64868164 244.09008789 C20.94417358 244.09300674 18.23966507 244.09555537 15.53515625 244.09765625 C14.82789902 244.10026962 14.12064178 244.102883 13.39195251 244.10557556 C11.31865067 244.11285596 9.24543178 244.11390732 7.17211914 244.11352539 C6.00185684 244.115746 4.83159454 244.11796661 3.62586975 244.12025452 C1 244 1 244 0 243 C-0.09805942 239.87760807 -0.12990476 236.77731859 -0.12025452 233.65452576 C-0.12153615 232.16478928 -0.12153615 232.16478928 -0.12284368 230.64495713 C-0.12450149 227.28989819 -0.11897221 223.93488837 -0.11352539 220.57983398 C-0.11324356 218.18562827 -0.11340118 215.79142246 -0.1139679 213.3972168 C-0.11419621 208.22869319 -0.11134489 203.06018086 -0.10573006 197.89166069 C-0.09761712 190.41876712 -0.09500005 182.94587967 -0.09374207 175.47298218 C-0.09155122 163.34990459 -0.08489025 151.22683371 -0.07543945 139.10375977 C-0.06626618 127.32446323 -0.05918493 115.54516852 -0.05493164 103.76586914 C-0.05466892 103.04029194 -0.05440619 102.31471474 -0.05413551 101.56715035 C-0.05283051 97.92729168 -0.05156679 94.287433 -0.05032361 90.64757431 C-0.03994998 60.43171034 -0.02151113 30.21585868 0 0 Z " fill="#78654F" transform="translate(1175,267)"/>
<path d="M0 0 C-0.99 0.33 -1.98 0.66 -3 1 C-3 1.66 -3 2.32 -3 3 C-4.65 3.33 -6.3 3.66 -8 4 C-8 4.66 -8 5.32 -8 6 C-4.19389583 6.88809097 -0.65502933 7.1346183 3.25 7.125 C4.30703125 7.12757813 5.3640625 7.13015625 6.453125 7.1328125 C8.93482251 7.28828538 8.93482251 7.28828538 10 6 C12.01964199 5.92755947 14.04167124 5.91622812 16.0625 5.9375 C17.16722656 5.94652344 18.27195312 5.95554687 19.41015625 5.96484375 C20.26480469 5.97644531 21.11945313 5.98804688 22 6 C22.495 6.99 22.495 6.99 23 8 C14.79434031 9.04894833 6.58801632 10.09247267 -1.61919403 11.12921143 C-5.43071459 11.61085473 -9.24198582 12.09431445 -13.05273438 12.58203125 C-16.73505638 13.05324177 -20.41797077 13.51954244 -24.10133362 13.98254395 C-25.50165165 14.15942155 -26.90175313 14.33802291 -28.30162048 14.51843262 C-35.23603731 15.41102818 -42.00317956 16.24877584 -49 16 C-49 15.67 -49 15.34 -49 15 C-48.07316406 14.87882812 -47.14632812 14.75765625 -46.19140625 14.6328125 C-44.99386719 14.46523438 -43.79632812 14.29765625 -42.5625 14.125 C-41.36753906 13.96257812 -40.17257812 13.80015625 -38.94140625 13.6328125 C-37.97074219 13.42398437 -37.00007812 13.21515625 -36 13 C-35.67 12.34 -35.34 11.68 -35 11 C-32.28553021 10.68758545 -29.66090639 10.48663408 -26.9375 10.375 C-26.17888672 10.33632813 -25.42027344 10.29765625 -24.63867188 10.2578125 C-22.75952805 10.16326438 -20.87979664 10.08053244 -19 10 C-19 9.34 -19 8.68 -19 8 C-18.34 7.67 -17.68 7.34 -17 7 C-18.794375 7.0309375 -18.794375 7.0309375 -20.625 7.0625 C-24.18004869 7.06882571 -27.50555624 6.69888875 -31 6 C-31 5.67 -31 5.34 -31 5 C-30.41508789 4.88406494 -29.83017578 4.76812988 -29.22753906 4.64868164 C-26.5681563 4.12097191 -23.90907635 3.59175142 -21.25 3.0625 C-20.32960938 2.88009766 -19.40921875 2.69769531 -18.4609375 2.50976562 C-17.57148437 2.33251953 -16.68203125 2.15527344 -15.765625 1.97265625 C-14.94868164 1.81031494 -14.13173828 1.64797363 -13.29003906 1.48071289 C-11.83004044 1.1742377 -10.37681318 0.83181624 -8.93652344 0.44311523 C-5.96540289 -0.23673648 -3.03328977 -0.0583325 0 0 Z " fill="#F2E2CD" transform="translate(875,344)"/>
<path d="M0 0 C4.53786224 2.26893112 5.94678157 4.09866534 9 8 C8.67 8.66 8.34 9.32 8 10 C6.68 10 5.36 10 4 10 C3.34 9.34 2.68 8.68 2 8 C1.67 47.93 1.34 87.86 1 129 C0.67 129 0.34 129 0 129 C0 86.43 0 43.86 0 0 Z " fill="#B9A590" transform="translate(635,382)"/>
<path d="M0 0 C0.33 0 0.66 0 1 0 C1.00331015 0.69814221 1.00662029 1.39628443 1.01003075 2.11558247 C1.09119661 19.09084772 1.18326787 36.06601857 1.28752708 53.04115772 C1.33768184 61.25015709 1.38412438 69.45914633 1.421875 77.66821289 C1.45478188 84.82194745 1.49460579 91.97560404 1.54279006 99.12925261 C1.5680681 102.91821985 1.58984546 106.70713528 1.60334396 110.49616432 C1.61615258 114.06089483 1.63819377 117.62544778 1.66738319 121.19008064 C1.68080762 123.12535311 1.6843828 125.06068601 1.68769836 126.9960022 C1.69886185 128.14445114 1.71002533 129.29290009 1.7215271 130.47615051 C1.72705786 131.4762959 1.73258862 132.47644129 1.73828697 133.50689411 C1.83098302 136.25001004 1.83098302 136.25001004 4 139 C3.67 139.33 3.34 139.66 3 140 C2.76807135 141.51469448 2.58784762 143.03754562 2.4375 144.5625 C2.35371094 145.38878906 2.26992188 146.21507812 2.18359375 147.06640625 C2.09271484 148.02353516 2.09271484 148.02353516 2 149 C1.67 149 1.34 149 1 149 C-0.03779941 141.35097208 -0.13524333 133.83913317 -0.11352539 126.12670898 C-0.11324282 124.74608868 -0.11340262 123.36546824 -0.1139679 121.98484802 C-0.11425313 118.26234582 -0.10840082 114.53987628 -0.10139394 110.81738162 C-0.09511467 106.91764923 -0.094553 103.01791598 -0.09336853 99.11817932 C-0.09026865 91.74486749 -0.08207345 84.3715706 -0.07201904 76.99826533 C-0.06081608 68.59918584 -0.05533694 60.20010561 -0.05032361 51.8010205 C-0.03988964 34.53400505 -0.02231634 17.26700411 0 0 Z " fill="#553D27" transform="translate(306,280)"/>
<path d="M0 0 C0 0.33 0 0.66 0 1 C-3.96 1.66 -7.92 2.32 -12 3 C-12 3.66 -12 4.32 -12 5 C-9.36 5 -6.72 5 -4 5 C-7.66214455 7.09399547 -11.56222448 8.06199407 -15.625 9.0625 C-16.68654297 9.32691895 -16.68654297 9.32691895 -17.76953125 9.59667969 C-23.15118339 10.8930795 -28.46216311 11.73375784 -34 12 C-34 11.01 -34 10.02 -34 9 C-30.7 8.34 -27.4 7.68 -24 7 C-24 6.01 -24 5.02 -24 4 C-26.64 4 -29.28 4 -32 4 C-29.12039467 2.39177068 -26.79185123 1.68075143 -23.515625 1.3671875 C-22.23558594 1.24150391 -22.23558594 1.24150391 -20.9296875 1.11328125 C-20.04539062 1.03464844 -19.16109375 0.95601563 -18.25 0.875 C-17.38117187 0.78863281 -16.51234375 0.70226562 -15.6171875 0.61328125 C-10.38701205 0.11853492 -5.25263844 -0.08550807 0 0 Z " fill="#F1DEC8" transform="translate(536,400)"/>
<path d="M0 0 C19.47 0 38.94 0 59 0 C59 0.99 59 1.98 59 3 C52.25 4 52.25 4 50 4 C50 3.34 50 2.68 50 2 C44.10983001 2.09368215 38.2200639 2.19980963 32.33032227 2.31738281 C30.32745476 2.35562217 28.32451975 2.39048381 26.3215332 2.421875 C23.43937083 2.46763496 20.55767106 2.52561154 17.67578125 2.5859375 C16.78288895 2.59748871 15.88999664 2.60903992 14.970047 2.62094116 C9.4695965 2.75097452 5.07982901 2.92017099 1 7 C0.67 4.69 0.34 2.38 0 0 Z " fill="#3F2B18" transform="translate(1176,268)"/>
<path d="M0 0 C1.65 0 3.3 0 5 0 C5.33 1.65 5.66 3.3 6 5 C4.35 3.68 2.7 2.36 1 1 C1 43.24 1 85.48 1 129 C0.34 128.67 -0.32 128.34 -1 128 C-0.67 85.76 -0.34 43.52 0 0 Z " fill="#84725D" transform="translate(1241,382)"/>
<path d="M0 0 C0.99 0.33 1.98 0.66 3 1 C3.33 1.99 3.66 2.98 4 4 C3.34 4.66 2.68 5.32 2 6 C1.68669962 8.00539744 1.68669962 8.00539744 1.7215271 10.34060669 C1.71036362 11.25208466 1.69920013 12.16356262 1.68769836 13.10266113 C1.68553818 14.10535034 1.68337799 15.10803955 1.68115234 16.14111328 C1.67110672 17.19479095 1.6610611 18.24846863 1.65071106 19.33407593 C1.61973062 22.82948238 1.60280266 26.32481174 1.5859375 29.8203125 C1.56723781 32.23884756 1.54766532 34.65737601 1.5272522 37.07589722 C1.47579837 43.45123409 1.43624367 49.82659215 1.39910889 56.20202637 C1.35915214 62.70374854 1.30802191 69.2053816 1.2578125 75.70703125 C1.16089639 88.47129055 1.07616279 101.23560087 1 114 C0.67 114 0.34 114 0 114 C0 76.38 0 38.76 0 0 Z " fill="#E8D6C1" transform="translate(1242,383)"/>
<path d="M0 0 C19.47 0 38.94 0 59 0 C59 0.33 59 0.66 59 1 C49.1 1 39.2 1 29 1 C29 1.66 29 2.32 29 3 C28.08734375 2.98259766 28.08734375 2.98259766 27.15625 2.96484375 C18.73661601 2.87817105 10.39331236 3.4102566 2 4 C1.67 6.31 1.34 8.62 1 11 C0.67 11 0.34 11 0 11 C0 7.37 0 3.74 0 0 Z " fill="#3A2311" transform="translate(469,269)"/>
<path d="M0 0 C0 0.99 0 1.98 0 3 C-11.88 3.33 -23.76 3.66 -36 4 C-26.5453387 -2.30310753 -10.95371241 -0.21019917 0 0 Z " fill="#CFC1AD" transform="translate(204,260)"/>
<path d="M0 0 C1.66289063 0.00676758 1.66289063 0.00676758 3.359375 0.01367188 C6.07297399 0.02536842 8.78645761 0.04175914 11.5 0.0625 C11.5 0.3925 11.5 0.7225 11.5 1.0625 C6.23559503 1.7813467 0.97030481 2.49317827 -4.29589844 3.19873047 C-6.08456549 3.43935108 -7.87298305 3.68183438 -9.66113281 3.92626953 C-12.24219276 4.27875542 -14.82409736 4.62437131 -17.40625 4.96875 C-18.19616333 5.0781189 -18.98607666 5.18748779 -19.79992676 5.3001709 C-24.74547029 5.95141756 -29.51135209 6.16187546 -34.5 6.0625 C-34.5 5.7325 -34.5 5.4025 -34.5 5.0625 C-33.57316406 4.94132812 -32.64632812 4.82015625 -31.69140625 4.6953125 C-30.49386719 4.52773438 -29.29632812 4.36015625 -28.0625 4.1875 C-26.86753906 4.02507812 -25.67257812 3.86265625 -24.44140625 3.6953125 C-23.47074219 3.48648437 -22.50007812 3.27765625 -21.5 3.0625 C-21.17 2.4025 -20.84 1.7425 -20.5 1.0625 C-13.70713583 -0.22329215 -6.8912852 -0.05358057 0 0 Z " fill="#CDB9A2" transform="translate(860.5,353.9375)"/>
<path d="M0 0 C21.78 0.495 21.78 0.495 44 1 C44 1.33 44 1.66 44 2 C30.8 2 17.6 2 4 2 C3.67 4.97 3.34 7.94 3 11 C2.01 10.34 1.02 9.68 0 9 C0 6.03 0 3.06 0 0 Z " fill="#3C2511" transform="translate(732,268)"/>
<path d="M0 0 C0 0.99 0 1.98 0 3 C-0.66 3 -1.32 3 -2 3 C-2.33 3.66 -2.66 4.32 -3 5 C-3.66 4.34 -4.32 3.68 -5 3 C-7.66966114 2.66778599 -7.66966114 2.66778599 -10.82666016 2.68115234 C-12.65833237 2.65134781 -12.65833237 2.65134781 -14.52700806 2.62094116 C-15.86435769 2.60906392 -17.20170925 2.59740111 -18.5390625 2.5859375 C-19.90385112 2.56723251 -21.26862811 2.5476596 -22.63339233 2.5272522 C-26.22706243 2.47585395 -29.82077005 2.43626973 -33.41461182 2.39910889 C-37.0811904 2.35911721 -40.74761185 2.3080029 -44.4140625 2.2578125 C-51.60926732 2.16096227 -58.80454795 2.07658693 -66 2 C-66 1.67 -66 1.34 -66 1 C-57.83763664 0.8693358 -49.67526924 0.73892805 -41.51289654 0.60884857 C-37.72286975 0.54844081 -33.93284442 0.48794439 -30.14282227 0.42724609 C-26.48591753 0.36868296 -22.82900917 0.31035175 -19.17209816 0.25218201 C-17.77624187 0.22993751 -16.38038691 0.20760914 -14.98453331 0.18519592 C-13.03095218 0.15384154 -11.07736585 0.12281176 -9.1237793 0.09179688 C-8.0112529 0.07403198 -6.8987265 0.05626709 -5.75248718 0.03796387 C-3.83513206 0.01151862 -1.91753748 0 0 0 Z " fill="#372110" transform="translate(373,268)"/>
<path d="M0 0 C0.66 0 1.32 0 2 0 C2 0.66 2 1.32 2 2 C21.8 2 41.6 2 62 2 C62.495 3.485 62.495 3.485 63 5 C61.35 5 59.7 5 58 5 C58 4.67 58 4.34 58 4 C38.86 3.67 19.72 3.34 0 3 C0 2.01 0 1.02 0 0 Z " fill="#3F2712" transform="translate(1178,505)"/>
<path d="M0 0 C0.66 0 1.32 0 2 0 C1.855625 1.2375 1.71125 2.475 1.5625 3.75 C0.37606286 14.62146653 -0.13397729 25.3084769 -0.0625 36.25 C-0.05746786 37.59244622 -0.05290802 38.9348943 -0.04882812 40.27734375 C-0.03717009 43.5182781 -0.02080774 46.75911369 0 50 C-0.33 50 -0.66 50 -1 50 C-1.96006073 42.21897844 -2.18309085 34.5225552 -2.1875 26.6875 C-2.19974609 25.55376953 -2.21199219 24.42003906 -2.22460938 23.25195312 C-2.23815154 15.32978447 -1.42099085 7.7908943 0 0 Z " fill="#735B46" transform="translate(824,360)"/>
<path d="M0 0 C0.33 0 0.66 0 1 0 C2.35500992 13.30813314 2.09794264 26.64062374 2 40 C-2.36138288 35.63861712 -1.12940307 26.90382582 -1.13671875 21.05859375 C-1.13285156 20.00800781 -1.12898437 18.95742188 -1.125 17.875 C-1.12886719 16.81667969 -1.13273438 15.75835937 -1.13671875 14.66796875 C-1.13045067 9.67230667 -1.06959774 4.90656742 0 0 Z " fill="#E6D1BA" transform="translate(891,370)"/>
<path d="M0 0 C1.65 0 3.3 0 5 0 C5.33 1.65 5.66 3.3 6 5 C4.35 3.68 2.7 2.36 1 1 C1 19.81 1 38.62 1 58 C0.67 58 0.34 58 0 58 C0 38.86 0 19.72 0 0 Z " fill="#9C8972" transform="translate(1241,382)"/>
<path d="M0 0 C4.53786224 2.26893112 5.94678157 4.09866534 9 8 C8.67 8.66 8.34 9.32 8 10 C6.68 10 5.36 10 4 10 C3.34 9.34 2.68 8.68 2 8 C1.67 16.58 1.34 25.16 1 34 C0.67 34 0.34 34 0 34 C0 22.78 0 11.56 0 0 Z " fill="#CDB99F" transform="translate(635,382)"/>
<path d="M0 0 C0.33 0 0.66 0 1 0 C1.00808685 0.58215775 1.01617371 1.16431549 1.02450562 1.76411438 C1.11046097 7.8148917 1.20996043 13.86533799 1.31738281 19.91577148 C1.35570221 22.17482959 1.39054981 24.43394932 1.421875 26.69311523 C1.46746107 29.93756157 1.52546638 33.18158248 1.5859375 36.42578125 C1.59748871 37.43836502 1.60903992 38.45094879 1.62094116 39.49421692 C1.64081085 40.43496567 1.66068054 41.37571442 1.68115234 42.3449707 C1.69447601 43.17325882 1.70779968 44.00154694 1.7215271 44.85493469 C1.87738759 47.29596133 1.87738759 47.29596133 4 50 C3.505 50.495 3.505 50.495 3 51 C2.76807135 52.51469448 2.58784762 54.03754562 2.4375 55.5625 C2.35371094 56.38878906 2.26992188 57.21507812 2.18359375 58.06640625 C2.12300781 58.70449219 2.06242187 59.34257812 2 60 C1.67 60 1.34 60 1 60 C0.07096687 52.95027802 -0.13195985 46.070508 -0.09765625 38.96484375 C-0.0962413 37.84557999 -0.09482635 36.72631622 -0.09336853 35.57313538 C-0.08780879 32.02789542 -0.07526385 28.48272059 -0.0625 24.9375 C-0.05747979 22.52148529 -0.0529178 20.10546959 -0.04882812 17.68945312 C-0.03785257 11.79294685 -0.02115496 5.89647808 0 0 Z " fill="#583F2A" transform="translate(306,369)"/>
<path d="M0 0 C0.33 0 0.66 0 1 0 C1.13277344 0.74765625 1.26554687 1.4953125 1.40234375 2.265625 C1.57894531 3.25046875 1.75554687 4.2353125 1.9375 5.25 C2.19853516 6.71179688 2.19853516 6.71179688 2.46484375 8.203125 C2.91924712 10.8660072 2.91924712 10.8660072 3.58203125 12.859375 C4.24231403 16.2410102 3.95422398 19.58388978 3.75 23 C3.72292969 23.7115625 3.69585937 24.423125 3.66796875 25.15625 C3.41880799 29.46432 2.72523841 31.71736772 0 35 C0.00523682 34.32533691 0.01047363 33.65067383 0.01586914 32.95556641 C0.03688746 29.8453874 0.04973824 26.73522342 0.0625 23.625 C0.07087891 22.56410156 0.07925781 21.50320313 0.08789062 20.41015625 C0.10607287 14.48274493 -0.12010509 8.72266337 -0.88110352 2.84130859 C-0.92033936 2.23367676 -0.9595752 1.62604492 -1 1 C-0.67 0.67 -0.34 0.34 0 0 Z " fill="#E0CBB3" transform="translate(287,417)"/>
<path d="M0 0 C4.62 0 9.24 0 14 0 C14 2.64 14 5.28 14 8 C12.35 7.67 10.7 7.34 9 7 C9.33 6.01 9.66 5.02 10 4 C6.37 3.67 2.74 3.34 -1 3 C-0.67 2.01 -0.34 1.02 0 0 Z " fill="#392311" transform="translate(1127,268)"/>
<path d="M0 0 C3.43734063 -0.08703823 6.87439837 -0.14040272 10.3125 -0.1875 C11.28896484 -0.21263672 12.26542969 -0.23777344 13.27148438 -0.26367188 C14.20927734 -0.27333984 15.14707031 -0.28300781 16.11328125 -0.29296875 C16.97735596 -0.3086792 17.84143066 -0.32438965 18.73168945 -0.34057617 C21 0 21 0 24 3 C16.08 3 8.16 3 0 3 C0 2.01 0 1.02 0 0 Z " fill="#E4D3C2" transform="translate(416,516)"/>
<path d="M0 0 C0.66 0 1.32 0 2 0 C2 0.66 2 1.32 2 2 C19.82 2 37.64 2 56 2 C56 2.33 56 2.66 56 3 C37.52 3 19.04 3 0 3 C0 2.01 0 1.02 0 0 Z " fill="#3F2915" transform="translate(1346,507)"/>
<path d="M0 0 C5.94 0.66 11.88 1.32 18 2 C18 2.66 18 3.32 18 4 C18.66 3.67 19.32 3.34 20 3 C22.6723621 2.86584528 25.32250488 2.95681459 28 3 C28 4.32 28 5.64 28 7 C21.65594974 6.35521919 15.6670882 5.03753669 9.5 3.4375 C8.5821875 3.20353516 7.664375 2.96957031 6.71875 2.72851562 C4.47802077 2.15666285 2.23852312 1.58041707 0 1 C0 0.67 0 0.34 0 0 Z " fill="#CDB8A4" transform="translate(178,358)"/>
<path d="M0 0 C-3.00440021 2.00293347 -4.70993945 2.49271626 -8.1875 3.125 C-9.53908203 3.37636719 -9.53908203 3.37636719 -10.91796875 3.6328125 C-11.60503906 3.75398438 -12.29210937 3.87515625 -13 4 C-13 4.99 -13 5.98 -13 7 C-15.64 7 -18.28 7 -21 7 C-21 6.01 -21 5.02 -21 4 C-23.64 4 -26.28 4 -29 4 C-29 3.67 -29 3.34 -29 3 C-25.10480894 2.49491028 -21.20875343 1.99682267 -17.3125 1.5 C-16.20970703 1.35691406 -15.10691406 1.21382813 -13.97070312 1.06640625 C-12.90400391 0.93105469 -11.83730469 0.79570312 -10.73828125 0.65625 C-9.75899658 0.53056641 -8.77971191 0.40488281 -7.77075195 0.27539062 C-5.15767911 0.01567205 -2.62364032 -0.05025329 0 0 Z " fill="#5F442F" transform="translate(893,352)"/>
<path d="M0 0 C1.65 0 3.3 0 5 0 C3.95983868 3.28050876 2.82117492 6.40772118 1.4375 9.5625 C0.23024227 12.44942066 -0.53428229 14.92626312 -1 18 C-2.85579119 14.86835237 -3.28640356 12.62777837 -3 9 C-2.67 8.34 -2.34 7.68 -2 7 C-2 5.68 -2 4.36 -2 3 C-1.34 2.34 -0.68 1.68 0 1 C0 0.67 0 0.34 0 0 Z " fill="#4C3520" transform="translate(893,352)"/>
<path d="M0 0 C8.58 0.99 17.16 1.98 26 3 C26 3.33 26 3.66 26 4 C23.16711079 4.25120706 20.33593046 4.47636098 17.5 4.6875 C16.31277344 4.79674805 16.31277344 4.79674805 15.1015625 4.90820312 C9.26936125 5.31454502 5.3421407 4.38313387 0 2 C0 1.34 0 0.68 0 0 Z M2 4 C2.66 4 3.32 4 4 4 C4 4.66 4 5.32 4 6 C3.34 6 2.68 6 2 6 C2 5.34 2 4.68 2 4 Z " fill="#DDCDB9" transform="translate(382,512)"/>
<path d="M0 0 C0 0.66 0 1.32 0 2 C0.99 2.33 1.98 2.66 3 3 C3.99 3.66 4.98 4.32 6 5 C8.11280345 5.63292383 8.11280345 5.63292383 10 6 C10 6.66 10 7.32 10 8 C4.07800268 7.57700019 -1.09421216 6.54782662 -6 3 C-6.33 2.01 -6.66 1.02 -7 0 C-3.86650268 -1.04449911 -3.01031744 -0.93423645 0 0 Z " fill="#E8D7C3" transform="translate(930,449)"/>
<path d="M0 0 C1.67542976 0.28604898 3.34385343 0.61781233 5 1 C4.91306859 2.79258558 4.80489496 4.58415144 4.6875 6.375 C4.62949219 7.37273437 4.57148437 8.37046875 4.51171875 9.3984375 C4.34285156 10.25695312 4.17398438 11.11546875 4 12 C3.01 12.66 2.02 13.32 1 14 C0.93941406 13.31292969 0.87882813 12.62585938 0.81640625 11.91796875 C0.73261719 11.01691406 0.64882813 10.11585938 0.5625 9.1875 C0.48128906 8.29417969 0.40007813 7.40085937 0.31640625 6.48046875 C0.06510233 3.87256441 0.06510233 3.87256441 -1 1 C-0.67 0.67 -0.34 0.34 0 0 Z " fill="#3A230E" transform="translate(530,407)"/>
<path d="M0 0 C0 0.99 0 1.98 0 3 C-18.315 2.505 -18.315 2.505 -37 2 C-37 1.67 -37 1.34 -37 1 C-33.01650249 0.85575934 -29.03294178 0.71342 -25.04931641 0.57275391 C-23.03674886 0.50130464 -21.02423313 0.42840022 -19.01171875 0.35546875 C-12.67059171 0.13241403 -6.34513951 -0.06474632 0 0 Z " fill="#DAC9B7" transform="translate(976,515)"/>
<path d="M0 0 C3.96 0.33 7.92 0.66 12 1 C12 3 12 5 12 7 C7.62297367 5.77443263 3.30322683 4.46939453 -1 3 C-0.67 2.01 -0.34 1.02 0 0 Z " fill="#E6D6C2" transform="translate(231,369)"/>
<path d="M0 0 C2.1640625 -0.29296875 2.1640625 -0.29296875 4.625 -0.1875 C5.44226563 -0.16042969 6.25953125 -0.13335937 7.1015625 -0.10546875 C8.04128906 -0.05326172 8.04128906 -0.05326172 9 0 C9 0.66 9 1.32 9 2 C15.6 2 22.2 2 29 2 C29 2.33 29 2.66 29 3 C18.77 3 8.54 3 -2 3 C-1.34 2.01 -0.68 1.02 0 0 Z " fill="#3F2A17" transform="translate(407,512)"/>
<path d="M0 0 C0.66 0.33 1.32 0.66 2 1 C2 1.99 2 2.98 2 4 C0.68 3.34 -0.64 2.68 -2 2 C-1.34 1.34 -0.68 0.68 0 0 Z M-6 2 C-4.39125 2.5259375 -4.39125 2.5259375 -2.75 3.0625 C-1.8425 3.371875 -0.935 3.68125 0 4 C0 5.32 0 6.64 0 8 C-4.72224516 6.46527032 -9.35855331 4.76054874 -14 3 C-10.86714612 1.09791014 -9.44900317 0.78270476 -6 2 Z " fill="#5C4733" transform="translate(110,496)"/>
<path d="M0 0 C0.96550781 0.09990234 1.93101562 0.19980469 2.92578125 0.30273438 C5.28482148 0.54798113 7.64267189 0.8013914 10 1.0625 C10 1.3925 10 1.7225 10 2.0625 C0.76 2.0625 -8.48 2.0625 -18 2.0625 C-18.33 1.4025 -18.66 0.7425 -19 0.0625 C-12.45934602 -1.04046406 -6.57325232 -0.72985767 0 0 Z " fill="#ECDECD" transform="translate(955,259.9375)"/>
<path d="M0 0 C1.875 0.25 1.875 0.25 4 1 C5.375 2.8125 5.375 2.8125 6 5 C5.125 7.25 5.125 7.25 4 9 C3.34 9 2.68 9 2 9 C2 8.34 2 7.68 2 7 C0.68 7 -0.64 7 -2 7 C-1.34 4.69 -0.68 2.38 0 0 Z " fill="#3E2D16" transform="translate(1011,431)"/>
<path d="M0 0 C0.33 0 0.66 0 1 0 C1 9.9 1 19.8 1 30 C0.67 30 0.34 30 0 30 C-0.33 25.38 -0.66 20.76 -1 16 C-1.33 16 -1.66 16 -2 16 C-2.09765625 9.84765625 -2.09765625 9.84765625 -2 8 C-1.67 7.67 -1.34 7.34 -1 7 C-0.63239269 4.67182036 -0.29758419 2.3381615 0 0 Z " fill="#422915" transform="translate(1139,329)"/>
<path d="M0 0 C0 0.66 0 1.32 0 2 C2.31 1.34 4.62 0.68 7 0 C6.67 2.31 6.34 4.62 6 7 C4.68 7 3.36 7 2 7 C2 6.34 2 5.68 2 5 C1.030625 4.71125 0.06125 4.4225 -0.9375 4.125 C-4 3 -4 3 -5 1 C-2 0 -2 0 0 0 Z " fill="#58402C" transform="translate(998,328)"/>
<path d="M0 0 C0.66 0.99 1.32 1.98 2 3 C0.68 4.32 -0.64 5.64 -2 7 C-2 6.34 -2 5.68 -2 5 C-2.66 5 -3.32 5 -4 5 C-3.67 5.99 -3.34 6.98 -3 8 C-3.9375 10.6875 -3.9375 10.6875 -5 13 C-5.99 12.34 -6.98 11.68 -8 11 C-8.66 10.67 -9.32 10.34 -10 10 C-6.92118304 6.12948725 -3.99926986 2.97088618 0 0 Z M-4 10 C-2 11 -2 11 -2 11 Z " fill="#E7D7C2" transform="translate(1049,314)"/>
<path d="M0 0 C0 2 0 2 -1.35546875 3.5078125 C-6.37900289 7.94223283 -6.37900289 7.94223283 -9.6875 8.25 C-10.450625 8.1675 -11.21375 8.085 -12 8 C-14.25132517 8.91568906 -14.25132517 8.91568906 -16 10 C-16.66 9.34 -17.32 8.68 -18 8 C-16.3767313 7.3291288 -14.75132422 6.66342971 -13.125 6 C-12.22007812 5.62875 -11.31515625 5.2575 -10.3828125 4.875 C-8 4 -8 4 -6 4 C-6 3.34 -6 2.68 -6 2 C-2.25 0 -2.25 0 0 0 Z " fill="#DCCCB8" transform="translate(1022,499)"/>
<path d="M0 0 C3.26008643 3.16952847 6.22237877 6.39937989 9 10 C8.67 10.66 8.34 11.32 8 12 C6.68 12 5.36 12 4 12 C4 11.34 4 10.68 4 10 C3.34 10 2.68 10 2 10 C1.67 10.66 1.34 11.32 1 12 C1.020625 11.13375 1.04125 10.2675 1.0625 9.375 C1.00261044 6.14096352 0.60419067 3.17200103 0 0 Z " fill="#EAD9C4" transform="translate(1247,387)"/>
<path d="M0 0 C0.99 0.99 1.98 1.98 3 3 C3.7425 2.67 4.485 2.34 5.25 2 C8 1 8 1 12 1 C12 1.99 12 2.98 12 4 C3.57142857 6.28571429 3.57142857 6.28571429 -1 6 C-1.042721 4.33388095 -1.04063832 2.66617115 -1 1 C-0.67 0.67 -0.34 0.34 0 0 Z " fill="#5D4633" transform="translate(828,347)"/>
<path d="M0 0 C0.144375 0.639375 0.28875 1.27875 0.4375 1.9375 C0.81007181 3.97545146 0.81007181 3.97545146 2 5 C2.3125 7.3125 2.3125 7.3125 2 10 C0.1875 12.3125 0.1875 12.3125 -2 14 C-2.99 14 -3.98 14 -5 14 C-3.46527032 9.27775484 -1.76054874 4.64144669 0 0 Z " fill="#DAC8B6" transform="translate(285,458)"/>
<path d="M0 0 C2.40616633 2.40616633 2.375933 3.72364822 3 7 C3.99083967 9.23408113 3.99083967 9.23408113 5 11 C4.34 11.66 3.68 12.32 3 13 C0 9.25 0 9.25 0 7 C-0.99 6.67 -1.98 6.34 -3 6 C-3 4.68 -3 3.36 -3 2 C-2.01 1.34 -1.02 0.68 0 0 Z " fill="#553E2B" transform="translate(326,465)"/>
<path d="M0 0 C-0.99 0 -1.98 0 -3 0 C-3.33 0.99 -3.66 1.98 -4 3 C-5.32 3 -6.64 3 -8 3 C-8.66 3.66 -9.32 4.32 -10 5 C-11.9453125 4.7578125 -11.9453125 4.7578125 -14.125 4.125 C-15.21167969 3.81949219 -15.21167969 3.81949219 -16.3203125 3.5078125 C-16.87460937 3.34023438 -17.42890625 3.17265625 -18 3 C-15.03837914 1.37522189 -12.30733073 0.48304114 -9 -0.1875 C-8.154375 -0.36667969 -7.30875 -0.54585938 -6.4375 -0.73046875 C-3.96978589 -1.00334098 -2.34150494 -0.76424119 0 0 Z " fill="#E3CEBA" transform="translate(356,427)"/>
<path d="M0 0 C0.33 0 0.66 0 1 0 C2.26361972 5.98685848 3.32418477 11.91766294 4 18 C3.01 18 2.02 18 1 18 C1 17.34 1 16.68 1 16 C0.34 16 -0.32 16 -1 16 C-1.11138159 10.54230189 -0.91657981 5.38490641 0 0 Z " fill="#5F432C" transform="translate(890,400)"/>
<path d="M0 0 C3.73487777 0.4979837 5.81237635 0.87491756 9 3 C5.04 4.65 1.08 6.3 -3 8 C-3 7.01 -3 6.02 -3 5 C-1.68 4.34 -0.36 3.68 1 3 C0.67 2.01 0.34 1.02 0 0 Z " fill="#533B29" transform="translate(1131,274)"/>
<path d="M0 0 C0.33 0.66 0.66 1.32 1 2 C4.04012153 2.35846209 7.05881355 2.44436533 10.1171875 2.55859375 C13.21947827 3.03360575 14.13367624 3.55289717 16 6 C14.9378125 5.86722656 13.875625 5.73445313 12.78125 5.59765625 C12.09546875 5.51193359 11.4096875 5.42621094 10.703125 5.33789062 C7.13541667 4.89192708 3.56770833 4.44596354 0 4 C-0.76441406 3.90444824 -1.52882813 3.80889648 -2.31640625 3.71044922 C-5.15820312 3.35522461 -5.15820312 3.35522461 -8 3 C-5.36095629 1.58622659 -2.92879371 0.62759865 0 0 Z " fill="#E2D2C0" transform="translate(976,260)"/>
<path d="M0 0 C0.33 0.66 0.66 1.32 1 2 C-6.26 2.66 -13.52 3.32 -21 4 C-15.5771613 -1.4228387 -7.08711088 -0.20947126 0 0 Z " fill="#E7D5BE" transform="translate(897,350)"/>
<path d="M0 0 C0 0.99 0 1.98 0 3 C-1.65614657 3.38218767 -3.32457024 3.71395102 -5 4 C-5.33 3.67 -5.66 3.34 -6 3 C-7.41327947 2.84379445 -8.8335459 2.74943827 -10.25390625 2.68359375 C-11.10791016 2.64169922 -11.96191406 2.59980469 -12.84179688 2.55664062 C-13.73962891 2.51732422 -14.63746094 2.47800781 -15.5625 2.4375 C-16.46419922 2.39431641 -17.36589844 2.35113281 -18.29492188 2.30664062 C-20.52978485 2.20021858 -22.76476308 2.09820012 -25 2 C-25 1.67 -25 1.34 -25 1 C-21.95843125 0.83135856 -18.91676547 0.66502247 -15.875 0.5 C-15.0190625 0.45230469 -14.163125 0.40460938 -13.28125 0.35546875 C-8.84778214 0.11674356 -4.44201651 -0.05825595 0 0 Z " fill="#523924" transform="translate(438,459)"/>
<path d="M0 0 C1.66611905 -0.042721 3.33382885 -0.04063832 5 0 C6.71216126 1.71216126 6.17191224 3.91807056 6.1875 6.25 C6.20167969 7.20390625 6.21585938 8.1578125 6.23046875 9.140625 C5.9897641 12.12699459 5.249438 14.29370741 4 17 C3.67 17 3.34 17 3 17 C2.90311779 11.55306686 2.87137825 6.36095333 4 1 C2.68 0.67 1.36 0.34 0 0 Z " fill="#E1CEB8" transform="translate(532,404)"/>
<path d="M0 0 C-0.33 0.99 -0.66 1.98 -1 3 C-1.66 3 -2.32 3 -3 3 C-3 3.66 -3 4.32 -3 5 C-4.65 5.66 -6.3 6.32 -8 7 C-9.04449911 3.86650268 -8.93423645 3.01031744 -8 0 C-4.71303767 -0.79953138 -3.28976808 -1.09658936 0 0 Z " fill="#E9DCCB" transform="translate(125,274)"/>
<path d="M0 0 C2 3 2 3 1.828125 4.97265625 C1.63734375 5.66230469 1.4465625 6.35195313 1.25 7.0625 C0.97929687 8.10083984 0.97929687 8.10083984 0.703125 9.16015625 C0 11 0 11 -2 13 C-3.3271261 9.0186217 -3.06915913 5.14954773 -3 1 C-2.01 0.67 -1.02 0.34 0 0 Z " fill="#503724" transform="translate(283,455)"/>
<path d="M0 0 C1.65 0 3.3 0 5 0 C5 0.66 5 1.32 5 2 C6.32 2.66 7.64 3.32 9 4 C7.68 4 6.36 4 5 4 C4.34 4.66 3.68 5.32 3 6 C1.35008418 6.70710678 -0.31562256 7.37943989 -2 8 C-1.34 5.36 -0.68 2.72 0 0 Z " fill="#62503D" transform="translate(99,439)"/>
<path d="M0 0 C0.33 0.99 0.66 1.98 1 3 C-1.01822917 3.45572917 -3.03645833 3.91145833 -5.0546875 4.3671875 C-7.20719964 4.90474428 -7.20719964 4.90474428 -9 7 C-9.33 5.02 -9.66 3.04 -10 1 C-6.52674819 -0.1577506 -3.63932552 -0.06866652 0 0 Z " fill="#432816" transform="translate(839,345)"/>
<path d="M0 0 C0.66 0.66 1.32 1.32 2 2 C-2.37539576 6.37539576 -8.03265638 7.39108739 -14 8 C-14.33 7.01 -14.66 6.02 -15 5 C-11.08645538 3.96915957 -7.1292921 3.29192644 -3.14453125 2.59765625 C-2.43683594 2.40042969 -1.72914063 2.20320313 -1 2 C-0.67 1.34 -0.34 0.68 0 0 Z " fill="#685441" transform="translate(247,500)"/>
<path d="M0 0 C0 0.33 0 0.66 0 1 C3.3 1.66 6.6 2.32 10 3 C10 3.33 10 3.66 10 4 C2.10276444 4.48350422 -5.33532703 2.67664721 -13 1 C-12.37996094 0.84789062 -11.75992188 0.69578125 -11.12109375 0.5390625 C-9.75704583 0.19239839 -8.40194417 -0.19292123 -7.0625 -0.625 C-4.48800126 -1.09309068 -2.51818343 -0.62954586 0 0 Z " fill="#DAC8B3" transform="translate(162,459)"/>
<path d="M0 0 C0.33 0.66 0.66 1.32 1 2 C0.67 2.66 0.34 3.32 0 4 C0.99 4.33 1.98 4.66 3 5 C0.01397927 7.54364729 -2.17433195 8.33050809 -6 9 C-8.23408113 9.99083967 -8.23408113 9.99083967 -10 11 C-8.71937515 9.2925002 -7.38232443 7.62626404 -6 6 C-5.34 6 -4.68 6 -4 6 C-3.71125 5.38125 -3.4225 4.7625 -3.125 4.125 C-2 2 -2 2 0 0 Z " fill="#66523D" transform="translate(1009,434)"/>
<path d="M0 0 C0.66 1.32 1.32 2.64 2 4 C1.01 4.33 0.02 4.66 -1 5 C-1.103125 5.78375 -1.20625 6.5675 -1.3125 7.375 C-2 10 -2 10 -5 12 C-5.99 11.34 -6.98 10.68 -8 10 C-7.50628906 9.44570313 -7.01257813 8.89140625 -6.50390625 8.3203125 C-5.86324219 7.59585937 -5.22257812 6.87140625 -4.5625 6.125 C-3.92441406 5.40570313 -3.28632813 4.68640625 -2.62890625 3.9453125 C-0.94985535 2.09249509 -0.94985535 2.09249509 0 0 Z " fill="#DECFBD" transform="translate(277,476)"/>
<path d="M0 0 C2.125 0.375 2.125 0.375 4 1 C3.34 1 2.68 1 2 1 C2 1.66 2 2.32 2 3 C2.9075 2.690625 3.815 2.38125 4.75 2.0625 C7.16563338 1.2727737 9.52780285 0.57050703 12 0 C10 3 10 3 6.875 4.25 C2.42962192 5.11039576 -0.57396748 4.77649693 -5 4 C-4.01 3.34 -3.02 2.68 -2 2 C-1.34 1.34 -0.68 0.68 0 0 Z " fill="#E4D6C3" transform="translate(202,457)"/>
<path d="M0 0 C3.63559661 3.43361902 6.36113346 6.7973607 9 11 C8.01 11.33 7.02 11.66 6 12 C5.54625 11.175 5.0925 10.35 4.625 9.5 C4.08875 8.675 3.5525 7.85 3 7 C2.34 7 1.68 7 1 7 C-0.0625 5.1875 -0.0625 5.1875 -1 3 C-0.67 2.01 -0.34 1.02 0 0 Z " fill="#DCD0BD" transform="translate(698,460)"/>
<path d="M0 0 C0.99 0.99 1.98 1.98 3 3 C3 3.66 3 4.32 3 5 C4.32 5.66 5.64 6.32 7 7 C6 9 6 9 5 10 C3.35 10 1.7 10 0 10 C0 6.7 0 3.4 0 0 Z " fill="#E2D6C2" transform="translate(1297,451)"/>
<path d="M0 0 C4.455 0.99 4.455 0.99 9 2 C9 2.99 9 3.98 9 5 C6.1875 5.625 6.1875 5.625 3 6 C2.01 5.34 1.02 4.68 0 4 C0 2.68 0 1.36 0 0 Z " fill="#432B15" transform="translate(113,447)"/>
<path d="M0 0 C2 3 2 3 2 6 C5.3 5.67 8.6 5.34 12 5 C9 7 9 7 7 7 C7 7.66 7 8.32 7 9 C4.36 8.67 1.72 8.34 -1 8 C-0.67 5.36 -0.34 2.72 0 0 Z " fill="#D0BCA3" transform="translate(307,429)"/>
<path d="M0 0 C0 2.97 0 5.94 0 9 C-1.32 8.67 -2.64 8.34 -4 8 C-5.25 5.4375 -5.25 5.4375 -6 3 C-5.34 3 -4.68 3 -4 3 C-3.67 2.34 -3.34 1.68 -3 1 C-1 0 -1 0 0 0 Z " fill="#E8D7C0" transform="translate(1336,386)"/>
<path d="M0 0 C1.65 0 3.3 0 5 0 C5.33 1.65 5.66 3.3 6 5 C4.35 3.68 2.7 2.36 1 1 C1 7.93 1 14.86 1 22 C0.67 22 0.34 22 0 22 C0 14.74 0 7.48 0 0 Z " fill="#8D7660" transform="translate(1241,382)"/>
<path d="M0 0 C0.33 0 0.66 0 1 0 C1.22587773 3.26987035 1.42766605 6.54079281 1.625 9.8125 C1.68945312 10.74126953 1.75390625 11.67003906 1.8203125 12.62695312 C1.871875 13.51962891 1.9234375 14.41230469 1.9765625 15.33203125 C2.02893066 16.15421143 2.08129883 16.9763916 2.13525391 17.82348633 C2 20 2 20 0 23 C-1.41722796 15.2839811 -0.65647386 7.75649113 0 0 Z " fill="#FDF0DD" transform="translate(83,337)"/>
<path d="M0 0 C0 0.66 0 1.32 0 2 C-0.598125 2.268125 -1.19625 2.53625 -1.8125 2.8125 C-3.97224808 3.98493467 -5.35790256 5.19369282 -7 7 C-7.99 6.67 -8.98 6.34 -10 6 C-10.33 6.99 -10.66 7.98 -11 9 C-12.32 8.34 -13.64 7.68 -15 7 C-11.74560383 4.95437955 -8.5682325 3.40851283 -5 2 C-2 0 -2 0 0 0 Z " fill="#DFD0BE" transform="translate(253,500)"/>
<path d="M0 0 C6.6 0.33 13.2 0.66 20 1 C20 1.33 20 1.66 20 2 C15.05 2 10.1 2 5 2 C5 2.66 5 3.32 5 4 C3.35 4 1.7 4 0 4 C0 2.68 0 1.36 0 0 Z " fill="#412715" transform="translate(1076,504)"/>
<path d="M0 0 C0.99 0.33 1.98 0.66 3 1 C2.34 1 1.68 1 1 1 C1.350625 1.94875 1.70125 2.8975 2.0625 3.875 C3 7 3 7 2 9 C0.35 8.67 -1.3 8.34 -3 8 C-3 6.68 -3 5.36 -3 4 C-2.34 4 -1.68 4 -1 4 C-0.67 2.68 -0.34 1.36 0 0 Z " fill="#3E2A18" transform="translate(85,482)"/>
<path d="M0 0 C-0.81404297 0.39832031 -0.81404297 0.39832031 -1.64453125 0.8046875 C-2.71767578 1.33449219 -2.71767578 1.33449219 -3.8125 1.875 C-4.52019531 2.22304688 -5.22789062 2.57109375 -5.95703125 2.9296875 C-8.21246418 4.0656486 -8.21246418 4.0656486 -11 6 C-12.98 5.01 -14.96 4.02 -17 3 C-17 2.67 -17 2.34 -17 2 C-14.91952703 1.4678559 -12.83547707 0.94968214 -10.75 0.4375 C-9.58984375 0.14746094 -8.4296875 -0.14257812 -7.234375 -0.44140625 C-4.27909017 -0.95179964 -2.75565899 -1.02996165 0 0 Z " fill="#E7D1BA" transform="translate(337,431)"/>
<path d="M0 0 C3.25543229 0.34879632 4.01873107 1.02133261 6.25 3.5625 C6.8275 4.366875 7.405 5.17125 8 6 C7.67 6.66 7.34 7.32 7 8 C3 8 3 8 1.25 6.8125 C-0.38540232 4.44116664 -0.22858693 2.81923877 0 0 Z " fill="#DDCBB2" transform="translate(636,384)"/>
<path d="M0 0 C4.8333472 -0.08333357 9.23692563 0.04738513 14 1 C13.67 1.99 13.34 2.98 13 4 C11.68 4 10.36 4 9 4 C9 3.34 9 2.68 9 2 C8.34 2 7.68 2 7 2 C6.67 2.66 6.34 3.32 6 4 C5.01 3.67 4.02 3.34 3 3 C3 2.34 3 1.68 3 1 C2.01 0.67 1.02 0.34 0 0 Z " fill="#402613" transform="translate(218,266)"/>
<path d="M0 0 C0.33 0.66 0.66 1.32 1 2 C1.66 2.33 2.32 2.66 3 3 C-0.69172595 6.53790403 -4.09390595 6.59115883 -9 7 C-9.33 5.68 -9.66 4.36 -10 3 C-8.9171875 3.37125 -8.9171875 3.37125 -7.8125 3.75 C-4.8205652 4.31737069 -4.8205652 4.31737069 -2.1875 2.0625 C-1.465625 1.381875 -0.74375 0.70125 0 0 Z " fill="#DDCDB6" transform="translate(1020,341)"/>
<path d="M0 0 C4.74107498 3.25102284 7.20870403 7.10632366 10 12 C8.02 11.34 6.04 10.68 4 10 C3.67 8.35 3.34 6.7 3 5 C2.34 5 1.68 5 1 5 C0.67 3.35 0.34 1.7 0 0 Z " fill="#6F5943" transform="translate(718,382)"/>
<path d="M0 0 C0.66 0 1.32 0 2 0 C1.855625 1.2375 1.71125 2.475 1.5625 3.75 C0.92166738 9.49002931 0.4578378 15.24293318 0 21 C-0.33 21 -0.66 21 -1 21 C-1.0270203 18.24993392 -1.04684883 15.50013454 -1.0625 12.75 C-1.07087891 11.97269531 -1.07925781 11.19539063 -1.08789062 10.39453125 C-1.09111328 9.64042969 -1.09433594 8.88632812 -1.09765625 8.109375 C-1.10289307 7.41811523 -1.10812988 6.72685547 -1.11352539 6.01464844 C-0.99437971 3.90026102 -0.57618237 2.03358485 0 0 Z " fill="#624A35" transform="translate(824,360)"/>
<path d="M0 0 C0.33 0.66 0.66 1.32 1 2 C2.32 1.34 3.64 0.68 5 0 C5.99 0.66 6.98 1.32 8 2 C6.625 3.5 6.625 3.5 5 5 C4.34 5 3.68 5 3 5 C3 5.66 3 6.32 3 7 C2.01 6.67 1.02 6.34 0 6 C0 4.02 0 2.04 0 0 Z " fill="#4C3926" transform="translate(1024,329)"/>
<path d="M0 0 C2.64 0 5.28 0 8 0 C6.21825212 2.30142435 4.83695835 3.80034391 1.953125 4.48828125 C-0.0246611 4.72323102 -2.01271872 4.86751458 -4 5 C-3.34 4.67 -2.68 4.34 -2 4 C-0.86649466 1.98330173 -0.86649466 1.98330173 0 0 Z " fill="#3B2511" transform="translate(922,266)"/>
<path d="M0 0 C0 0.66 0 1.32 0 2 C-2.64 2.66 -5.28 3.32 -8 4 C-8 4.66 -8 5.32 -8 6 C-8.99 6.33 -9.98 6.66 -11 7 C-11 6.34 -11 5.68 -11 5 C-10.34 5 -9.68 5 -9 5 C-8.938125 4.38125 -8.87625 3.7625 -8.8125 3.125 C-8 1 -8 1 -5.625 -0.3125 C-3 -1 -3 -1 0 0 Z " fill="#57442E" transform="translate(1024,497)"/>
<path d="M0 0 C0.66 0 1.32 0 2 0 C2 0.66 2 1.32 2 2 C2.66 2 3.32 2 4 2 C4.33 1.34 4.66 0.68 5 0 C5.99 0.33 6.98 0.66 8 1 C5.75 3.5 5.75 3.5 3 6 C1.68 6 0.36 6 -1 6 C-0.67 4.02 -0.34 2.04 0 0 Z " fill="#493824" transform="translate(257,489)"/>
<path d="M0 0 C0.66 1.32 1.32 2.64 2 4 C1.67 4.99 1.34 5.98 1 7 C0.34 7 -0.32 7 -1 7 C-1.33 7.66 -1.66 8.32 -2 9 C-2 8.34 -2 7.68 -2 7 C-3.32 7.33 -4.64 7.66 -6 8 C-4.02 5.36 -2.04 2.72 0 0 Z " fill="#DBCAB6" transform="translate(1054,470)"/>
<path d="M0 0 C0 3 0 3 -1.9375 5.625 C-5.910445 8.70605939 -9.09068217 8.8823475 -14 9 C-5 3 -5 3 -2 3 C-2 2.34 -2 1.68 -2 1 C-1.34 0.67 -0.68 0.34 0 0 Z " fill="#6F5A46" transform="translate(998,445)"/>
<path d="M0 0 C2.74154581 0.78156328 5.32278811 1.72758575 7.95703125 2.81640625 C8.84003906 3.17863281 9.72304687 3.54085938 10.6328125 3.9140625 C11.62861328 4.32978516 11.62861328 4.32978516 12.64453125 4.75390625 C8.58167368 6.38520512 5.44350941 5.05359402 1.39453125 3.81640625 C0.13125 3.43613281 -1.13203125 3.05585938 -2.43359375 2.6640625 C-3.3978125 2.36371094 -4.36203125 2.06335938 -5.35546875 1.75390625 C-2.35546875 -0.24609375 -2.35546875 -0.24609375 0 0 Z " fill="#BFA892" transform="translate(215.35546875,365.24609375)"/>
<path d="M0 0 C0.66 0.33 1.32 0.66 2 1 C1.01 2.485 1.01 2.485 0 4 C-0.99 4 -1.98 4 -3 4 C-3 4.66 -3 5.32 -3 6 C-5.31 6.33 -7.62 6.66 -10 7 C-10 7.66 -10 8.32 -10 9 C-11.32 8.67 -12.64 8.34 -14 8 C-13.07316406 7.50628906 -12.14632813 7.01257813 -11.19140625 6.50390625 C-9.98172045 5.85686501 -8.77208778 5.20972446 -7.5625 4.5625 C-6.95083984 4.23701172 -6.33917969 3.91152344 -5.70898438 3.57617188 C-2.66283794 2.06284858 -2.66283794 2.06284858 0 0 Z " fill="#5D4734" transform="translate(1121,307)"/>
<path d="M0 0 C1.8871875 0.0309375 1.8871875 0.0309375 3.8125 0.0625 C3.8125 1.0525 3.8125 2.0425 3.8125 3.0625 C-0.1875 3.0625 -4.1875 3.0625 -8.1875 3.0625 C-6.45706736 -0.39836529 -3.47359009 -0.0569441 0 0 Z " fill="#3D2714" transform="translate(160.1875,265.9375)"/>
<path d="M0 0 C3.3 0.99 6.6 1.98 10 3 C5.8204355 5.78637633 3.85331323 4.79562512 -1 4 C-0.67 2.68 -0.34 1.36 0 0 Z " fill="#E5D5C0" transform="translate(899,506)"/>
<path d="M0 0 C2.93200474 2.85276137 5.64315404 5.65079784 8 9 C6.35 9 4.7 9 3 9 C3 8.34 3 7.68 3 7 C2.34 7 1.68 7 1 7 C0.67 4.69 0.34 2.38 0 0 Z " fill="#D7C5B2" transform="translate(848,467)"/>
<path d="M0 0 C-0.33 0.66 -0.66 1.32 -1 2 C-4.16015625 2.4140625 -4.16015625 2.4140625 -8.0625 2.625 C-9.35285156 2.69976562 -10.64320313 2.77453125 -11.97265625 2.8515625 C-12.97167969 2.90054687 -13.97070312 2.94953125 -15 3 C-15 2.01 -15 1.02 -15 0 C-12.525 0.495 -12.525 0.495 -10 1 C-10 0.34 -10 -0.32 -10 -1 C-6.06329512 -2.31223496 -3.87511856 -1.24296256 0 0 Z " fill="#DCCCB8" transform="translate(383,436)"/>
<path d="M0 0 C4.29 0 8.58 0 13 0 C9.4482799 1.77586005 7.08232923 2.48627846 3.25 3.125 C2.26515625 3.29257812 1.2803125 3.46015625 0.265625 3.6328125 C-0.48203125 3.75398438 -1.2296875 3.87515625 -2 4 C-1.34 2.68 -0.68 1.36 0 0 Z " fill="#E2CDB6" transform="translate(519,405)"/>
<path d="M0 0 C3.875 1.75 3.875 1.75 5 4 C1.37 4.66 -2.26 5.32 -6 6 C-5.67 5.34 -5.34 4.68 -5 4 C-4.34 4 -3.68 4 -3 4 C-3 3.34 -3 2.68 -3 2 C-2.01 1.34 -1.02 0.68 0 0 Z " fill="#563F29" transform="translate(883,337)"/>
<path d="M0 0 C0.33 0 0.66 0 1 0 C0.67 7.59 0.34 15.18 0 23 C-0.33 23 -0.66 23 -1 23 C-1.22527296 19.54254978 -1.42733544 16.08412975 -1.625 12.625 C-1.68945312 11.64015625 -1.75390625 10.6553125 -1.8203125 9.640625 C-1.871875 8.69960938 -1.9234375 7.75859375 -1.9765625 6.7890625 C-2.02893066 5.91975098 -2.08129883 5.05043945 -2.13525391 4.15478516 C-2 2 -2 2 0 0 Z " fill="#EAD9C6" transform="translate(85,326)"/>
<path d="M0 0 C3.16115776 1.36983503 3.9927092 1.9890638 6 5 C5.01 5.33 4.02 5.66 3 6 C2.67 6.99 2.34 7.98 2 9 C0.79371992 6.66785852 -0.1654738 4.50357861 -1 2 C-0.67 1.34 -0.34 0.68 0 0 Z " fill="#ECE1CE" transform="translate(705,471)"/>
<path d="M0 0 C0.66 0 1.32 0 2 0 C2.33 0.99 2.66 1.98 3 3 C3.66 3 4.32 3 5 3 C5.66 5.31 6.32 7.62 7 10 C2.93376028 8.64458676 1.46953182 6.42990531 -1 3 C-0.67 2.01 -0.34 1.02 0 0 Z " fill="#E6D7C0" transform="translate(1048,457)"/>
<path d="M0 0 C0.33 0 0.66 0 1 0 C1.1953125 1.98567708 1.390625 3.97135417 1.5859375 5.95703125 C1.92665391 8.29988142 1.92665391 8.29988142 4 11 C3.67 11.33 3.34 11.66 3 12 C2.76807135 13.51469448 2.58784762 15.03754562 2.4375 16.5625 C2.35371094 17.38878906 2.26992188 18.21507812 2.18359375 19.06640625 C2.12300781 19.70449219 2.06242187 20.34257812 2 21 C1.67 21 1.34 21 1 21 C0.06145994 13.96094956 -0.10808032 7.09727428 0 0 Z " fill="#654D36" transform="translate(306,408)"/>
<path d="M0 0 C2.64 0.66 5.28 1.32 8 2 C7.01 2.33 6.02 2.66 5 3 C5 3.66 5 4.32 5 5 C5.66 5.33 6.32 5.66 7 6 C4.36 5.67 1.72 5.34 -1 5 C-0.67 3.35 -0.34 1.7 0 0 Z " fill="#EEE0CC" transform="translate(246,329)"/>
<path d="M0 0 C4.455 0.99 4.455 0.99 9 2 C8.34 2.66 7.68 3.32 7 4 C7.66 4.66 8.32 5.32 9 6 C5.65626525 5.44271087 2.96687001 4.64826111 0 3 C0 2.01 0 1.02 0 0 Z " fill="#E9D8C0" transform="translate(973,321)"/>
<path d="M0 0 C1.65 0 3.3 0 5 0 C5.33 2.31 5.66 4.62 6 7 C5.01 7 4.02 7 3 7 C0.64276511 4.46815512 0 3.52809907 0 0 Z " fill="#F3E5CE" transform="translate(1274,316)"/>
<path d="M0 0 C0.33 0.66 0.66 1.32 1 2 C0.00390625 4.1640625 0.00390625 4.1640625 -1.4375 6.625 C-1.91058594 7.44226563 -2.38367188 8.25953125 -2.87109375 9.1015625 C-3.24363281 9.72804688 -3.61617187 10.35453125 -4 11 C-4.33 10.34 -4.66 9.68 -5 9 C-5.66 9 -6.32 9 -7 9 C-6.1875 7.0625 -6.1875 7.0625 -5 5 C-4.01 4.67 -3.02 4.34 -2 4 C-0.79117904 1.99983534 -0.79117904 1.99983534 0 0 Z " fill="#644D37" transform="translate(857,300)"/>
<path d="M0 0 C-4.15259175 3.26275066 -7.43878396 5.15636329 -12.75 5.625 C-13.54921875 5.69976562 -14.3484375 5.77453125 -15.171875 5.8515625 C-16.07679687 5.92503906 -16.07679687 5.92503906 -17 6 C-13.96503913 3.49723606 -11.06804717 2.08387688 -7.375 0.75 C-6.41335938 0.39421875 -5.45171875 0.0384375 -4.4609375 -0.328125 C-2 -1 -2 -1 0 0 Z " fill="#D6C5B2" transform="translate(1118,288)"/>
<path d="M0 0 C1.95766281 -0.08082094 3.91626728 -0.13910778 5.875 -0.1875 C7.51082031 -0.23970703 7.51082031 -0.23970703 9.1796875 -0.29296875 C10.11039063 -0.19628906 11.04109375 -0.09960938 12 0 C12.66 0.99 13.32 1.98 14 3 C8.87160006 4.81975482 4.82315618 2.8599099 0 1 C0 0.67 0 0.34 0 0 Z " fill="#CBB9A4" transform="translate(242,268)"/>
<path d="M0 0 C2.93200474 2.85276137 5.64315404 5.65079784 8 9 C6.68 9 5.36 9 4 9 C4 8.01 4 7.02 4 6 C3.01 6.33 2.02 6.66 1 7 C0 6 0 6 -0.0625 2.9375 C-0.041875 1.968125 -0.02125 0.99875 0 0 Z " fill="#D8C7B5" transform="translate(328,477)"/>
<path d="M0 0 C0.33 0 0.66 0 1 0 C1 5.61 1 11.22 1 17 C0.01 16.67 -0.98 16.34 -2 16 C-1.34 10.72 -0.68 5.44 0 0 Z " fill="#FDEFD9" transform="translate(729,377)"/>
<path d="M0 0 C0.99 0.33 1.98 0.66 3 1 C2.01 4.3 1.02 7.6 0 11 C-1.86870807 7.26258387 -2.41702384 5.96172649 -2 2 C-1.34 1.34 -0.68 0.68 0 0 Z " fill="#563D27" transform="translate(892,359)"/>
<path d="M0 0 C2.64 0 5.28 0 8 0 C8 1.32 8 2.64 8 4 C5.36 3.67 2.72 3.34 0 3 C0 2.01 0 1.02 0 0 Z " fill="#E1CFBC" transform="translate(198,361)"/>
<path d="M0 0 C2.5 2.3125 2.5 2.3125 5 5 C5 5.99 5 6.98 5 8 C3.35 7.67 1.7 7.34 0 7 C-0.33 6.01 -0.66 5.02 -1 4 C-0.34 4 0.32 4 1 4 C0.67 2.68 0.34 1.36 0 0 Z " fill="#6E5941" transform="translate(682,336)"/>
<path d="M0 0 C2.97 0.495 2.97 0.495 6 1 C6 2.32 6 3.64 6 5 C3.69 4.67 1.38 4.34 -1 4 C-0.67 2.68 -0.34 1.36 0 0 Z " fill="#3E2610" transform="translate(259,275)"/>
<path d="M0 0 C0.33 0 0.66 0 1 0 C1 1.98 1 3.96 1 6 C-2.3125 6.1875 -2.3125 6.1875 -6 6 C-6.99 5.01 -7.98 4.02 -9 3 C-6.03 3 -3.06 3 0 3 C0 2.01 0 1.02 0 0 Z " fill="#3D2611" transform="translate(633,504)"/>
<path d="M0 0 C2.49361571 1.20381448 4.68143083 2.45428722 7 4 C6.67 4.66 6.34 5.32 6 6 C4.35 6 2.7 6 1 6 C0.67 4.02 0.34 2.04 0 0 Z " fill="#3D2412" transform="translate(737,504)"/>
<path d="M0 0 C0.99 0.33 1.98 0.66 3 1 C3.33 1.99 3.66 2.98 4 4 C3.34 4.66 2.68 5.32 2 6 C1.53993654 8.20250992 1.53993654 8.20250992 1.375 10.625 C1.30023437 11.44226563 1.22546875 12.25953125 1.1484375 13.1015625 C1.07496094 14.04128906 1.07496094 14.04128906 1 15 C0.67 15 0.34 15 0 15 C0 10.05 0 5.1 0 0 Z " fill="#E1CDB4" transform="translate(1242,383)"/>
<path d="M0 0 C0.66 0.33 1.32 0.66 2 1 C1.67 2.32 1.34 3.64 1 5 C-1.3125 5.625 -1.3125 5.625 -4 6 C-4.99 5.34 -5.98 4.68 -7 4 C-1.7265625 0.77734375 -1.7265625 0.77734375 0 0 Z " fill="#57422B" transform="translate(1138,297)"/>
<path d="M0 0 C0 0.66 0 1.32 0 2 C0.66 2.33 1.32 2.66 2 3 C-0.31 3.33 -2.62 3.66 -5 4 C-5 3.34 -5 2.68 -5 2 C-5.99 1.67 -6.98 1.34 -8 1 C-5.07175348 0.02391783 -3.04386724 -0.08226668 0 0 Z " fill="#D4C4B4" transform="translate(984,513)"/>
<path d="M0 0 C1.32 0 2.64 0 4 0 C3.25 5.75 3.25 5.75 1 8 C1 6.68 1 5.36 1 4 C0.01 4.99 -0.98 5.98 -2 7 C-1.34 4.69 -0.68 2.38 0 0 Z " fill="#6A5541" transform="translate(90,464)"/>
<path d="M0 0 C1.08667969 0.01804687 2.17335938 0.03609375 3.29296875 0.0546875 C4.54013672 0.08949219 4.54013672 0.08949219 5.8125 0.125 C0.64226131 3.57182579 -3.16115319 3.18847297 -9.1875 2.125 C-5.66070901 -0.22619399 -4.15870515 -0.08943452 0 0 Z " fill="#DFCDB8" transform="translate(497.1875,403.875)"/>
<path d="M0 0 C1.32 0.33 2.64 0.66 4 1 C4.33 2.32 4.66 3.64 5 5 C4.34 5 3.68 5 3 5 C3 5.66 3 6.32 3 7 C2.34 7 1.68 7 1 7 C0.67 4.69 0.34 2.38 0 0 Z " fill="#412714" transform="translate(266,391)"/>
<path d="M0 0 C-2.57784846 2.64752004 -4.91648098 4.94432065 -8 7 C-8.33 5.68 -8.66 4.36 -9 3 C-5.92807025 0.26939578 -4.09590633 -0.34132553 0 0 Z " fill="#5A442D" transform="translate(1053,311)"/>
<path d="M0 0 C-0.99 1.98 -1.98 3.96 -3 6 C-3.66 5.67 -4.32 5.34 -5 5 C-4.67 4.34 -4.34 3.68 -4 3 C-5.98 3 -7.96 3 -10 3 C-6.88378718 -0.11621282 -4.21175599 -0.11383124 0 0 Z " fill="#604932" transform="translate(904,272)"/>
<path d="M0 0 C4.55737263 0.43820891 7.57653445 0.85041169 11 4 C10.67 4.66 10.34 5.32 10 6 C6.67545017 5.42680175 5.26018355 4.45672125 3 2 C2.01 1.34 1.02 0.68 0 0 Z " fill="#6C553F" transform="translate(141,457)"/>
<path d="M0 0 C0 0.66 0 1.32 0 2 C-1.32 2 -2.64 2 -4 2 C-4 2.66 -4 3.32 -4 4 C-6.97 4 -9.94 4 -13 4 C-12.67 3.34 -12.34 2.68 -12 2 C-7.70418473 0.73238238 -4.49055702 0 0 0 Z " fill="#DECCB5" transform="translate(945,320)"/>
<path d="M0 0 C1 3 1 3 -0.3125 5.6875 C-0.869375 6.450625 -1.42625 7.21375 -2 8 C-2.66 8 -3.32 8 -4 8 C-4.33 6.35 -4.66 4.7 -5 3 C-4.360625 2.87625 -3.72125 2.7525 -3.0625 2.625 C-2.0415625 2.315625 -2.0415625 2.315625 -1 2 C-0.67 1.34 -0.34 0.68 0 0 Z " fill="#FBEEDC" transform="translate(845,310)"/>
<path d="M0 0 C1.32 0 2.64 0 4 0 C3.67 0.78375 3.34 1.5675 3 2.375 C1.88133489 4.84332497 1.88133489 4.84332497 2 7 C-0.475 6.01 -0.475 6.01 -3 5 C-2.01 4.67 -1.02 4.34 0 4 C-0.33 3.01 -0.66 2.02 -1 1 C-0.67 0.67 -0.34 0.34 0 0 Z " fill="#E7D9C6" transform="translate(272,273)"/>
<path d="M0 0 C0 1.98 0 3.96 0 6 C-0.66 5.01 -1.32 4.02 -2 3 C-4.43693311 2.63583953 -4.43693311 2.63583953 -7.125 2.8125 C-8.49011719 2.85310547 -8.49011719 2.85310547 -9.8828125 2.89453125 C-10.58148437 2.92933594 -11.28015625 2.96414063 -12 3 C-7.74560485 0.81962249 -4.84315381 0 0 0 Z " fill="#624E37" transform="translate(536,405)"/>
<path d="M0 0 C-1.32 0.33 -2.64 0.66 -4 1 C-4 1.66 -4 2.32 -4 3 C-7.3 2.67 -10.6 2.34 -14 2 C-14 1.67 -14 1.34 -14 1 C-9.32798795 -0.20568053 -4.78503708 -0.09382426 0 0 Z " fill="#3F2410" transform="translate(872,356)"/>
<path d="M0 0 C1.32 0.33 2.64 0.66 4 1 C4 1.99 4 2.98 4 4 C2.35 4.66 0.7 5.32 -1 6 C-1.33 5.01 -1.66 4.02 -2 3 C-1.34 2.01 -0.68 1.02 0 0 Z " fill="#59422C" transform="translate(926,321)"/>
<path d="M0 0 C1.58294782 -0.05437607 3.16644256 -0.09296271 4.75 -0.125 C5.63171875 -0.14820313 6.5134375 -0.17140625 7.421875 -0.1953125 C10.1135858 0.00860498 11.69904974 0.63448279 14 2 C4.58997722 3.51708428 4.58997722 3.51708428 0 1 C0 0.67 0 0.34 0 0 Z " fill="#E6D0B9" transform="translate(958,319)"/>
<path d="M0 0 C3.49734228 0.38859359 6.65788261 0.88596087 10 2 C6.04 2.99 2.08 3.98 -2 5 C-1 1 -1 1 0 0 Z " fill="#C0B09E" transform="translate(910,265)"/>
<path d="M0 0 C1.93922422 0.45098238 3.87633594 0.91105559 5.8125 1.375 C6.89144531 1.63023437 7.97039062 1.88546875 9.08203125 2.1484375 C12 3 12 3 15 5 C9.76119922 4.44854729 5.02649303 3.57077907 0 2 C0 1.34 0 0.68 0 0 Z " fill="#D4C2AE" transform="translate(104,502)"/>
<path d="M0 0 C2.96404505 2.80804268 5.44499019 5.18315774 7 9 C4.0625 7.875 4.0625 7.875 1 6 C0.125 2.8125 0.125 2.8125 0 0 Z " fill="#CEBDAC" transform="translate(725,494)"/>
<path d="M0 0 C0.78375 0.04125 1.5675 0.0825 2.375 0.125 C2.375 0.785 2.375 1.445 2.375 2.125 C3.035 2.455 3.695 2.785 4.375 3.125 C1.735 3.455 -0.905 3.785 -3.625 4.125 C-3.955 3.465 -4.285 2.805 -4.625 2.125 C-2.625 0.125 -2.625 0.125 0 0 Z " fill="#533B26" transform="translate(919.625,448.875)"/>
<path d="M0 0 C0.33 0.66 0.66 1.32 1 2 C-0.0625 5 -0.0625 5 -2 8 C-5.1875 9.375 -5.1875 9.375 -8 10 C-7.59007812 9.52949219 -7.18015625 9.05898438 -6.7578125 8.57421875 C-6.21898437 7.95160156 -5.68015625 7.32898438 -5.125 6.6875 C-4.59132813 6.07261719 -4.05765625 5.45773437 -3.5078125 4.82421875 C-1.8359553 2.86501788 -1.8359553 2.86501788 0 0 Z " fill="#716049" transform="translate(458,442)"/>
<path d="M0 0 C6.625 0.75 6.625 0.75 10 3 C5.545 3.495 5.545 3.495 1 4 C1.33 3.34 1.66 2.68 2 2 C1.34 1.34 0.68 0.68 0 0 Z " fill="#DBCAB3" transform="translate(148,410)"/>
<path d="M0 0 C3.96 0 7.92 0 12 0 C9.50494038 2.49505962 8.32671112 2.35948376 4.875 2.625 C3.96492188 2.69976562 3.05484375 2.77453125 2.1171875 2.8515625 C1.06917969 2.92503906 1.06917969 2.92503906 0 3 C0 2.01 0 1.02 0 0 Z " fill="#CDB9A4" transform="translate(502,409)"/>
<path d="M0 0 C0.556875 0.45375 1.11375 0.9075 1.6875 1.375 C4.05313439 3.03733768 6.29015658 4.02144543 9 5 C6.46578263 6.26710868 4.80561762 6.28056176 2 6 C0 3 0 3 0 0 Z M-1 3 C-0.67 3.66 -0.34 4.32 0 5 C-0.66 4.67 -1.32 4.34 -2 4 C-1.67 3.67 -1.34 3.34 -1 3 Z " fill="#E4D5C0" transform="translate(111,394)"/>
<path d="M0 0 C-0.33 1.32 -0.66 2.64 -1 4 C-6.75 2.25 -6.75 2.25 -9 0 C-5.67465243 -1.10844919 -3.37817425 -0.84454356 0 0 Z " fill="#DAC9B2" transform="translate(257,378)"/>
<path d="M0 0 C3.3 0 6.6 0 10 0 C10.66 1.32 11.32 2.64 12 4 C6.06 2.515 6.06 2.515 0 1 C0 0.67 0 0.34 0 0 Z " fill="#D8C3AD" transform="translate(166,354)"/>
<path d="M0 0 C0 0.66 0 1.32 0 2 C-2.64 2.66 -5.28 3.32 -8 4 C-5.97675095 -0.48005146 -4.79569304 -1.43870791 0 0 Z " fill="#584330" transform="translate(1126,282)"/>
<path d="M0 0 C1.95979427 0.28168297 3.91782378 0.57566717 5.875 0.875 C7.51082031 1.11863281 7.51082031 1.11863281 9.1796875 1.3671875 C12 2 12 2 14 4 C11.36 4 8.72 4 6 4 C6 3.34 6 2.68 6 2 C4.02 2 2.04 2 0 2 C0 1.34 0 0.68 0 0 Z " fill="#DECDB9" transform="translate(130,510)"/>
<path d="M0 0 C-0.33 1.32 -0.66 2.64 -1 4 C-1.66 4 -2.32 4 -3 4 C-3 3.34 -3 2.68 -3 2 C-4.32 2.33 -5.64 2.66 -7 3 C-6.67 2.01 -6.34 1.02 -6 0 C-3 -1 -3 -1 0 0 Z " fill="#FBEFD8" transform="translate(1056,458)"/>
<path d="M0 0 C1.485 0.99 1.485 0.99 3 2 C2.45276317 5.37462715 1.9451 7.08235 0 10 C-0.19412181 8.52168779 -0.38012131 7.04230684 -0.5625 5.5625 C-0.66691406 4.73878906 -0.77132812 3.91507812 -0.87890625 3.06640625 C-0.91886719 2.38449219 -0.95882812 1.70257813 -1 1 C-0.67 0.67 -0.34 0.34 0 0 Z " fill="#E0D0BB" transform="translate(92,451)"/>
<path d="M0 0 C0.33 0.66 0.66 1.32 1 2 C2.98 2 4.96 2 7 2 C3.17482487 4.39073445 -0.59665524 4.55966552 -5 5 C-3.625 3.5 -3.625 3.5 -2 2 C-1.34 2 -0.68 2 0 2 C0 1.34 0 0.68 0 0 Z " fill="#C7B098" transform="translate(337,442)"/>
<path d="M0 0 C0 0.66 0 1.32 0 2 C-3.63 2.66 -7.26 3.32 -11 4 C-11 3.34 -11 2.68 -11 2 C-7.17679443 0.57741188 -4.08718695 -0.24042276 0 0 Z " fill="#ECD7C2" transform="translate(500,411)"/>
<path d="M0 0 C0.598125 0.350625 1.19625 0.70125 1.8125 1.0625 C1.8125 2.3825 1.8125 3.7025 1.8125 5.0625 C-1.84066671 3.81273244 -2.96815836 3.39151247 -5.1875 0.0625 C-2.1875 -0.9375 -2.1875 -0.9375 0 0 Z " fill="#5C4633" transform="translate(110.1875,388.9375)"/>
<path d="M0 0 C0.33 0.66 0.66 1.32 1 2 C1.99 1.67 2.98 1.34 4 1 C4 2.65 4 4.3 4 6 C2.68 6 1.36 6 0 6 C0 4.02 0 2.04 0 0 Z " fill="#3B270F" transform="translate(704,369)"/>
<path d="M0 0 C0.99 0.495 0.99 0.495 2 1 C1.01 1.495 1.01 1.495 0 2 C0 1.34 0 0.68 0 0 Z M0 2 C-0.33 3.32 -0.66 4.64 -1 6 C-3.31 6 -5.62 6 -8 6 C-7.01 5.67 -6.02 5.34 -5 5 C-5 4.34 -5 3.68 -5 3 C-2 2 -2 2 0 2 Z " fill="#FEF2E0" transform="translate(872,345)"/>
<path d="M0 0 C-0.99 0.33 -1.98 0.66 -3 1 C-3 1.66 -3 2.32 -3 3 C-6.62326739 4.2077558 -7.64146369 3.54311128 -11 2 C-7.36576791 -0.32590854 -4.22911669 -0.16265833 0 0 Z " fill="#E3D3BF" transform="translate(875,344)"/>
<path d="M0 0 C0 0.66 0 1.32 0 2 C-0.66 2 -1.32 2 -2 2 C-2 2.66 -2 3.32 -2 4 C-6.455 3.01 -6.455 3.01 -11 2 C-9.68 1.67 -8.36 1.34 -7 1 C-6.319375 0.814375 -5.63875 0.62875 -4.9375 0.4375 C-3 0 -3 0 0 0 Z " fill="#5A412B" transform="translate(245,322)"/>
<path d="M0 0 C0.99 0 1.98 0 3 0 C3 0.66 3 1.32 3 2 C3.66 2 4.32 2 5 2 C5 2.99 5 3.98 5 5 C3.35 5 1.7 5 0 5 C0 4.34 0 3.68 0 3 C-0.66 2.67 -1.32 2.34 -2 2 C-1.34 1.34 -0.68 0.68 0 0 Z " fill="#503A27" transform="translate(114,282)"/>
<path d="M0 0 C2.4375 0.875 2.4375 0.875 4.4375 4.875 C1.1375 3.885 -2.1625 2.895 -5.5625 1.875 C-2.5625 -0.125 -2.5625 -0.125 0 0 Z " fill="#D9CAB8" transform="translate(1005.5625,267.125)"/>
<path d="M0 0 C2.64 0 5.28 0 8 0 C8 0.99 8 1.98 8 3 C5.36 3 2.72 3 0 3 C0 2.01 0 1.02 0 0 Z " fill="#E3D2BF" transform="translate(968,515)"/>
<path d="M0 0 C0.33 1.32 0.66 2.64 1 4 C0.01 4.495 0.01 4.495 -1 5 C-1 5.66 -1 6.32 -1 7 C-4 6 -4 6 -7 4 C-5.824375 3.566875 -5.824375 3.566875 -4.625 3.125 C-1.90328368 2.15087746 -1.90328368 2.15087746 0 0 Z " fill="#624A38" transform="translate(215,456)"/>
<path d="M0 0 C2.5 2.3125 2.5 2.3125 5 5 C5 5.99 5 6.98 5 8 C1.83884224 6.63016497 1.0072908 6.0109362 -1 3 C-0.67 2.01 -0.34 1.02 0 0 Z " fill="#C8B79F" transform="translate(1273,420)"/>
<path d="M0 0 C-9.41002278 3.62870159 -9.41002278 3.62870159 -14 2 C-9.38048134 -0.66510692 -5.12794215 -1.46986273 0 0 Z " fill="#745B46" transform="translate(486,417)"/>
<path d="M0 0 C2.475 0.495 2.475 0.495 5 1 C5.33 3.31 5.66 5.62 6 8 C5.34 8 4.68 8 4 8 C2.66666667 5.33333333 1.33333333 2.66666667 0 0 Z " fill="#3F2611" transform="translate(272,399)"/>
<path d="M0 0 C2.475 0.495 2.475 0.495 5 1 C5 1.66 5 2.32 5 3 C5.66 3.33 6.32 3.66 7 4 C5.02 4.33 3.04 4.66 1 5 C0.67 3.35 0.34 1.7 0 0 Z " fill="#FEF0DD" transform="translate(825,353)"/>
<path d="M0 0 C1.65 1.65 3.3 3.3 5 5 C4.34 5 3.68 5 3 5 C2.67 5.66 2.34 6.32 2 7 C0.4375 5.75 0.4375 5.75 -1 4 C-0.6875 1.8125 -0.6875 1.8125 0 0 Z " fill="#EADBC5" transform="translate(1002,336)"/>
<path d="M0 0 C0.99 0.33 1.98 0.66 3 1 C2.25 2.9375 2.25 2.9375 1 5 C-1.125 5.75 -1.125 5.75 -3 6 C-3.33 5.34 -3.66 4.68 -4 4 C-2.68 2.68 -1.36 1.36 0 0 Z " fill="#381F0B" transform="translate(1125,306)"/>
<path d="M0 0 C0.66 0 1.32 0 2 0 C1.34 2.31 0.68 4.62 0 7 C-0.99 7 -1.98 7 -3 7 C-1.125 2.25 -1.125 2.25 0 0 Z " fill="#D5C4B0" transform="translate(520,467)"/>
<path d="M0 0 C2.97 0 5.94 0 9 0 C5.55549263 2.29633824 3.06187717 2.54016485 -1 3 C-0.67 2.01 -0.34 1.02 0 0 Z " fill="#664C35" transform="translate(324,430)"/>
<path d="M0 0 C0.66 0.99 1.32 1.98 2 3 C0.68 4.32 -0.64 5.64 -2 7 C-2.6875 5.1875 -2.6875 5.1875 -3 3 C-1.5625 1.25 -1.5625 1.25 0 0 Z " fill="#EFDFC9" transform="translate(1049,314)"/>
<path d="M0 0 C2.475 0.495 2.475 0.495 5 1 C5.33 2.32 5.66 3.64 6 5 C5.01 5.495 5.01 5.495 4 6 C1.7522025 3.94766315 0.9977758 2.99332739 0 0 Z " fill="#5E4834" transform="translate(1298,451)"/>
<path d="M0 0 C1.65 1.65 3.3 3.3 5 5 C4 8 4 8 2 9 C1.34 6.03 0.68 3.06 0 0 Z " fill="#634A33" transform="translate(826,421)"/>
<path d="M0 0 C5.95703125 -0.390625 5.95703125 -0.390625 8 0 C8.99 1.32 9.98 2.64 11 4 C7.37 3.01 3.74 2.02 0 1 C0 0.67 0 0.34 0 0 Z " fill="#846E59" transform="translate(130,404)"/>
<path d="M0 0 C1.32 0.66 2.64 1.32 4 2 C3.67 2.99 3.34 3.98 3 5 C0.5625 4.625 0.5625 4.625 -2 4 C-2.33 3.34 -2.66 2.68 -3 2 C-2.01 2 -1.02 2 0 2 C0 1.34 0 0.68 0 0 Z " fill="#6C543F" transform="translate(116,393)"/>
<path d="M0 0 C2.5 2.3125 2.5 2.3125 5 5 C5 5.99 5 6.98 5 8 C3.0625 7.375 3.0625 7.375 1 6 C0.25 2.875 0.25 2.875 0 0 Z " fill="#C3B19C" transform="translate(1247,387)"/>
<path d="M0 0 C-0.99 0.33 -1.98 0.66 -3 1 C-3.33 1.66 -3.66 2.32 -4 3 C-6.64 2.67 -9.28 2.34 -12 2 C-12 1.67 -12 1.34 -12 1 C-3.96428571 -1.27678571 -3.96428571 -1.27678571 0 0 Z " fill="#DAC9B4" transform="translate(844,351)"/>
<path d="M0 0 C0.66 0.33 1.32 0.66 2 1 C1.34 2.32 0.68 3.64 0 5 C-0.99 5 -1.98 5 -3 5 C-3 4.34 -3 3.68 -3 3 C-3.66 2.67 -4.32 2.34 -5 2 C-2.625 0.9375 -2.625 0.9375 0 0 Z " fill="#442913" transform="translate(1086,329)"/>
<path d="M0 0 C0.33 0.99 0.66 1.98 1 3 C-0.98 3.66 -2.96 4.32 -5 5 C-5 4.01 -5 3.02 -5 2 C-2 0 -2 0 0 0 Z " fill="#533E2A" transform="translate(880,283)"/>
<path d="M0 0 C0.86625 0.3403125 0.86625 0.3403125 1.75 0.6875 C0.5625 2.25 0.5625 2.25 -1.25 3.6875 C-3.9375 3.375 -3.9375 3.375 -6.25 2.6875 C-2.80384615 -0.38942308 -2.80384615 -0.38942308 0 0 Z " fill="#5A4735" transform="translate(128.25,275.3125)"/>
<path d="M0 0 C1.98 0 3.96 0 6 0 C6 0.66 6 1.32 6 2 C4.35 2.66 2.7 3.32 1 4 C0.67 2.68 0.34 1.36 0 0 Z " fill="#3B2510" transform="translate(1074,268)"/>
<path d="M0 0 C0 0.66 0 1.32 0 2 C-1.98 2.99 -3.96 3.98 -6 5 C-6.66 4.34 -7.32 3.68 -8 3 C-2.25 0 -2.25 0 0 0 Z " fill="#C4B4A0" transform="translate(1012,504)"/>
<path d="M0 0 C2.97 0.495 2.97 0.495 6 1 C6 1.99 6 2.98 6 4 C3.03 3.505 3.03 3.505 0 3 C0 2.01 0 1.02 0 0 Z " fill="#3F2918" transform="translate(992,505)"/>
<path d="M0 0 C3.01327566 1.50663783 3.61056618 4.03166411 5 7 C3 6 1 5 -1 4 C-0.67 2.68 -0.34 1.36 0 0 Z " fill="#624E3A" transform="translate(355,497)"/>
<path d="M0 0 C0.66 0.33 1.32 0.66 2 1 C2 1.99 2 2.98 2 4 C0.68 3.34 -0.64 2.68 -2 2 C-1.34 1.34 -0.68 0.68 0 0 Z M-3 4 C-2.01 4.33 -1.02 4.66 0 5 C0 5.99 0 6.98 0 8 C-0.66 8 -1.32 8 -2 8 C-2.33 6.68 -2.66 5.36 -3 4 Z " fill="#573D28" transform="translate(110,496)"/>
<path d="M0 0 C0.66 0 1.32 0 2 0 C2.33 0.66 2.66 1.32 3 2 C3.66 2 4.32 2 5 2 C5 2.66 5 3.32 5 4 C3.35 4.33 1.7 4.66 0 5 C-0.5625 3.0625 -0.5625 3.0625 -1 1 C-0.67 0.67 -0.34 0.34 0 0 Z " fill="#3B210C" transform="translate(1041,458)"/>
<path d="M0 0 C2.15377564 2.62198774 3.40072174 4.64404172 4 8 C2.68 7.34 1.36 6.68 0 6 C0 4.02 0 2.04 0 0 Z " fill="#D7C6B1" transform="translate(835,446)"/>
<path d="M0 0 C1.32 1.32 2.64 2.64 4 4 C2.02 4.99 2.02 4.99 0 6 C-1 3 -1 3 0 0 Z " fill="#DDCDB6" transform="translate(1290,442)"/>
<path d="M0 0 C1.5625 1.8125 1.5625 1.8125 3 4 C2.67 4.99 2.34 5.98 2 7 C-0.475 6.01 -0.475 6.01 -3 5 C-2.34 4.67 -1.68 4.34 -1 4 C-0.34786708 1.97536745 -0.34786708 1.97536745 0 0 Z " fill="#3C210D" transform="translate(371,414)"/>
<path d="M0 0 C2.475 0.495 2.475 0.495 5 1 C5 1.66 5 2.32 5 3 C3.35 3.66 1.7 4.32 0 5 C0 3.35 0 1.7 0 0 Z " fill="#3E250E" transform="translate(259,386)"/>
<path d="M0 0 C1.32 0.99 2.64 1.98 4 3 C3 5 3 5 2 6 C1.01 5.67 0.02 5.34 -1 5 C-0.67 3.35 -0.34 1.7 0 0 Z " fill="#3F2916" transform="translate(1250,384)"/>
<path d="M0 0 C0.99 0.33 1.98 0.66 3 1 C2.67 1.66 2.34 2.32 2 3 C-0.9375 3.75 -0.9375 3.75 -4 4 C-4.66 3.34 -5.32 2.68 -6 2 C-5.38125 1.855625 -4.7625 1.71125 -4.125 1.5625 C-1.96741678 1.06847775 -1.96741678 1.06847775 0 0 Z " fill="#5E452E" transform="translate(1088,296)"/>
<path d="M0 0 C0 0.66 0 1.32 0 2 C-2.5 3.625 -2.5 3.625 -5 5 C-5.33 3.68 -5.66 2.36 -6 1 C-4 0 -4 0 0 0 Z " fill="#EEDFCB" transform="translate(870,288)"/>
</svg>
